<svg aria-hidden="true" style="width:0;height:0;position:absolute;overflow:hidden" xmlns="http://www.w3.org/2000/svg"><defs><symbol id="icon-logo" viewBox="0 0 41 32"><path fill="#ffe550" style="fill:var(--color1,#ffe550)" d="M14.123 6.486a2.74 2.74 0 0 1 4.867-.015l.007.015 1.268 2.474a2.747 2.747 0 0 0 1.99 1.456l.016.002 2.757.443c2.203.351 3.083 3.04 1.508 4.615l-1.982 2a2.722 2.722 0 0 0-.769 2.345l.437 2.769a2.732 2.732 0 0 1-3.959 2.848l.015.007-2.474-1.255c-.362-.188-.79-.298-1.243-.298s-.881.11-1.258.305l.015-.007-2.474 1.255a2.732 2.732 0 0 1-3.942-2.871l-.002.016.431-2.769a2.72 2.72 0 0 0-.757-2.345l-1.988-1.994a2.727 2.727 0 0 1 1.492-4.614l.016-.002 2.757-.443a2.748 2.748 0 0 0 2.005-1.443l.007-.015 1.262-2.474z"/><path fill="#2c2c2c" style="fill:var(--color2,#2c2c2c)" d="M1.12 20.357h-.025l-.012.905c-.008.448-.013.976-.013 1.505v.262-.014c0 .123-.006.215-.018.295l-.018.209c-.012.123-.043.197-.086.209-.092.018-.234-.049-.431-.215s-.308-.314-.345-.443c-.031-.123-.037-1.058-.018-2.8.025-1.742-.025-2.886-.135-3.434a.425.425 0 0 1 .013-.274l-.001.003c.037-.166.222-.326.554-.468.338-.148.843-.308 1.52-.462.677-.166 1.225-.252 1.625-.271.406-.025.622.031.652.154.025.086-.025.16-.135.228l-.302.16c-.003.013-.251.106-.501.197l-.25.08a10.98 10.98 0 0 0-1.11.384l.076-.028-.677.24-.548.197.037.092c.08.332.123 1.132.123 2.394.449-.086.923-.209 1.415-.369s.8-.258.923-.283c.265-.062.412-.043.443.074.049.215-.215.474-.8.769a8.656 8.656 0 0 1-1.957.702zM8.068 18.4a1.955 1.955 0 0 0-.277-.658.952.952 0 0 0-.443-.392l-.006-.002c-.462.246-.794.726-1.003 1.434a3.602 3.602 0 0 0-.183 1.145c0 .257.026.508.077.75l-.004-.024c.129.542.345.849.646.923.492-.222.843-.677 1.058-1.354.215-.683.265-1.292.135-1.828zm-2.776.751c.123-.615.332-1.145.646-1.594a1.912 1.912 0 0 1 1.094-.827l.013-.003c.431-.098.825 0 1.194.289s.615.689.738 1.206c.123.511.117 1.065 0 1.662a3.782 3.782 0 0 1-.726 1.569 2.242 2.242 0 0 1-1.246.846l-.016.003a1.106 1.106 0 0 1-1.022-.283 2.155 2.155 0 0 1-.656-1.168l-.002-.014c-.123-.517-.129-1.077-.018-1.686zm7.606-1.896a2.025 2.025 0 0 0-.283-.652.955.955 0 0 0-.443-.398l-.006-.002c-.462.252-.794.732-1.003 1.44a3.713 3.713 0 0 0-.101 1.889l-.004-.024c.123.548.345.855.646.923.486-.222.837-.671 1.046-1.348.222-.689.271-1.292.148-1.828zm-2.781.757c.123-.615.332-1.138.646-1.588a1.921 1.921 0 0 1 1.094-.834l.013-.003c.431-.098.825 0 1.194.289s.615.689.738 1.206c.123.511.123 1.065 0 1.662a3.873 3.873 0 0 1-.72 1.575 2.242 2.242 0 0 1-1.246.846l-.016.003a1.103 1.103 0 0 1-1.028-.289 2.155 2.155 0 0 1-.656-1.162l-.002-.014c-.123-.517-.123-1.083-.018-1.692zm7.815-6.997c.117-.031.277.043.492.222.222.16.351.338.394.523s.08.726.105 1.631c.025.905.031 1.84.012 2.818-.018 2.185-.117 3.298-.277 3.342-.098.018-.222-.012-.369-.105-.148-.098-.228-.197-.252-.289a3.775 3.775 0 0 1-.061-.565v-.007c-.523.874-1.046 1.372-1.563 1.495-.314.074-.634 0-.954-.222-.314-.228-.511-.492-.578-.8a5.584 5.584 0 0 1 .637-3.573l-.015.029c.326-.597.745-.96 1.249-1.077.505-.123.923.098 1.268.652.006-1.588-.074-2.818-.246-3.698-.049-.215 0-.338.16-.375zm.062 5.496a2.149 2.149 0 0 0-.434-.927l.003.004c-.185-.228-.375-.326-.56-.283-.308.074-.572.338-.8.788a4.599 4.599 0 0 0-.496 2.093c0 .247.019.49.056.727l-.003-.026a.39.39 0 0 0 .209.277.473.473 0 0 0 .357.037c.277-.062.603-.351.978-.862a3.542 3.542 0 0 0 .699-1.623l.003-.02v-.135l-.012-.049zm6.8-.646c.135.578-.012 1.132-.443 1.649a3.045 3.045 0 0 1-1.653 1.012l-.02.004c-.677.16-1.268.123-1.791-.123s-.825-.535-.898-.843c-.049-.215-.012-.332.117-.369.111-.025.375.092.794.357.154.086.351.16.591.215.246.062.492.055.726 0a2.41 2.41 0 0 0 1.23-.694l.001-.001c.332-.351.462-.677.394-.972-.049-.185-.234-.4-.554-.64a8.21 8.21 0 0 0-1.058-.64 8.332 8.332 0 0 1-1.046-.658c-.326-.246-.511-.455-.554-.634a1.658 1.658 0 0 1-.024-.594l-.001.009c.025-.215.068-.382.135-.492.203-.369.566-.751 1.089-1.145a3.982 3.982 0 0 1 1.362-.731l.028-.007a.756.756 0 0 1 .566.086c.172.098.277.222.314.369.018.074-.043.148-.185.228l-.64.332a4.598 4.598 0 0 0-.738.418c-.745.505-1.083.905-1.015 1.194.037.154.554.492 1.557 1.015.415.219.772.471 1.094.761l-.005-.004c.345.308.554.603.628.898zm2.443.529c.031.135.123.185.283.148.271-.062.578-.215.923-.455.357-.246.554-.375.597-.388.129-.031.209.025.246.16.043.203-.111.492-.474.862-.357.369-.708.591-1.058.677-.338.08-.646.055-.917-.074-.271-.142-.431-.308-.48-.505a3.218 3.218 0 0 1-.049-.788c.012-.332.037-.763.074-1.305.043-.554.074-1.003.086-1.354-.314.154-.529.246-.646.271-.111.031-.24 0-.382-.086-.135-.098-.215-.197-.24-.308-.037-.166.388-.437 1.274-.812a7.455 7.455 0 0 0-.185-1.606c-.043-.215 0-.338.142-.369.123-.031.289.012.505.123.209.111.338.258.388.449.043.191.062.542.055 1.052.394-.129.714-.222.954-.283.431-.098.665-.062.708.123.025.111-.074.228-.289.351-.209.123-.665.351-1.372.677-.012.591-.049 1.28-.111 2.055-.055.769-.062 1.231-.031 1.385zM32 10.831c.32-.08.652.012 1.003.277.345.252.548.511.609.775.062.252.031.535-.08.849.111.086.172.166.191.246.049.197.086.548.105 1.046.034.661.076 1.223.129 1.782l-.012-.158c.012.185-.031.289-.129.308-.129.037-.265-.049-.4-.246a3.374 3.374 0 0 1-.345-.843c-.443.954-.935 1.489-1.477 1.618-.32.08-.677.018-1.065-.185-.375-.209-.603-.462-.677-.763-.098-.425-.062-.985.098-1.68a6.45 6.45 0 0 1 .818-1.969c.382-.603.794-.96 1.231-1.065zm.935 1.747c-.154-.658-.369-.954-.628-.892-.277.062-.554.338-.831.825a5.796 5.796 0 0 0-.613 1.51l-.009.041a2.838 2.838 0 0 0-.103 1.283l-.002-.016a.37.37 0 0 0 .222.265c.111.043.24.055.369.018.338-.08.665-.388.978-.935a3.884 3.884 0 0 0 .48-1.852c0-.111.043-.185.135-.234v-.012z"/><path fill="#bbf330" style="fill:var(--color3,#bbf330)" d="M30.751 19.975a.922.922 0 0 0-.646.603c-1.967 5.691-7.28 9.706-13.53 9.706a14.23 14.23 0 0 1-9.836-3.927l.006.006a.921.921 0 0 0-.862-.233l.006-.001c-.64.154-.88.929-.406 1.391a15.942 15.942 0 0 0 11.093 4.47c7.039 0 13.017-4.546 15.157-10.862l.033-.113c.203-.628-.369-1.2-1.015-1.046zM1.865 14.154a.94.94 0 0 0 .671-.732C3.802 6.723 9.609 1.724 16.583 1.724c4.538 0 8.582 2.116 11.198 5.416l.023.03a.92.92 0 0 0 .929.332c.585-.148.849-.825.486-1.298C26.264 2.43 21.708.028 16.59.028 8.744.028 2.217 5.676.852 13.127l-.015.098c-.111.591.443 1.071 1.028.923zm38.75-8.825c-3.778 7.243-5.434 2.462-10.757 5.274.542-8.406 6.166-3.292 10.757-5.274z"/></symbol><symbol id="icon-favicon" viewBox="0 0 32 32"><path fill="#fff" style="fill:var(--color1,#fff)" d="M5.333 0h21.333v21.333H5.333z"/><path fill="#ffe550" style="fill:var(--color4,#ffe550)" d="M14.371 4.304c.675-1.321 2.56-1.321 3.235 0l.853 1.673c.265.517.76.877 1.333.968l1.851.293c1.465.235 2.048 2.033 1 3.084l-1.321 1.323c-.411.412-.6.995-.511 1.571l.293 1.848c.231 1.467-1.296 2.579-2.617 1.907l-1.676-.853a1.808 1.808 0 0 0-1.656.005l.01-.005-1.675.853c-1.321.672-2.848-.44-2.616-1.907l.291-1.848a1.813 1.813 0 0 0-.51-1.571l-1.32-1.323c-1.049-1.051-.467-2.849 1-3.083l1.849-.293a1.828 1.828 0 0 0 1.333-.969l.853-1.673z"/><path fill="#bbf330" style="fill:var(--color5,#bbf330)" d="M16 21.333c-5.891 0-10.667-4.776-10.667-10.667S10.109-.001 16-.001s10.667 4.776 10.667 10.667S21.891 21.333 16 21.333zm0-1.137.159.001c5.264 0 9.531-4.267 9.531-9.531s-4.267-9.531-9.531-9.531l-.168.001h.008l-.159-.001c-5.264 0-9.531 4.267-9.531 9.531s4.267 9.531 9.531 9.531l.168-.001H16z"/></symbol><symbol id="icon-arrow" viewBox="0 0 17 32"><path fill="#fff" style="fill:var(--color1,#fff)" stroke-width="1.454" stroke="#000" d="M1.105 16.395a.548.548 0 0 1-.125-.61.55.55 0 0 1 .125-.18L15.291 2.089a.545.545 0 0 1 .747-.005l.008.008.014.013a.442.442 0 0 1 0 .644l-.001.001L2.148 15.999 16.06 29.254a.442.442 0 0 1 0 .644l-.013.013-.008.008a.543.543 0 0 1-.747-.005L1.106 16.398z"/></symbol><symbol id="icon-modal-close" viewBox="0 0 30 32"><path d="m16.219 14.826 4.928-4.923a1.013 1.013 0 0 0-1.431-1.428l.001-.001-4.927 4.874-4.959-4.955a1.014 1.014 0 0 0-1.427 1.429l-.001-.002 4.948 5.006-4.847 4.782a1.013 1.013 0 1 0 1.429 1.43l.001-.001 4.836-4.832 4.806 4.801a1.014 1.014 0 0 0 1.427-1.429l.001.002-4.785-4.751z"/></symbol><symbol id="icon-star1" viewBox="0 0 34 32"><path d="M15.421 1.037c.584-1.383 2.575-1.383 3.159 0l3.449 8.164a1.71 1.71 0 0 0 1.443 1.032l8.952.707c1.517.12 2.132 1.983.976 2.958l-6.821 5.752a1.67 1.67 0 0 0-.551 1.67l2.084 8.6c.353 1.457-1.257 2.609-2.556 1.828l-7.664-4.609a1.734 1.734 0 0 0-1.783 0l-7.664 4.609c-1.299.781-2.909-.371-2.556-1.828l2.084-8.6a1.67 1.67 0 0 0-.551-1.67L.601 13.898c-1.156-.975-.541-2.838.976-2.958l8.952-.707a1.71 1.71 0 0 0 1.443-1.032l3.449-8.164z"/></symbol><symbol id="icon-burger" viewBox="0 0 32 32"><path d="M2.666 8c0-.737.597-1.334 1.334-1.334h24a1.334 1.334 0 1 1 0 2.668H4A1.334 1.334 0 0 1 2.666 8zm0 8.042A1.335 1.335 0 0 1 4 14.709h24l.039-.001a1.334 1.334 0 1 1 0 2.668l-.041-.001H28 4a1.334 1.334 0 0 1-1.334-1.334zM4 22.752a1.334 1.334 0 0 0-.002 2.666H28l.039.001a1.334 1.334 0 1 0 0-2.668l-.041.001H28 4z"/></symbol><symbol id="icon-rocket" viewBox="0 0 32 32"><path d="m7.233 13.633 3.534 1.5c.4-.8.827-1.588 1.283-2.366s.939-1.522 1.45-2.234L10.867 10l-3.634 3.633zm5.134 2.7 4.433 4.434a25.986 25.986 0 0 0 3.663-2.027l-.096.06c1.11-.733 2.01-1.444 2.7-2.133 1.8-1.8 3.122-3.645 3.966-5.534s1.3-4.022 1.367-6.4c-2.378.067-4.511.523-6.4 1.367s-3.733 2.167-5.533 3.967c-.69.689-1.4 1.589-2.134 2.7a25.405 25.405 0 0 0-1.899 3.404l-.067.162zm7.633-3.2c-.444-.444-.667-.994-.667-1.65 0-.655.223-1.205.667-1.65s.994-.666 1.65-.666 1.206.222 1.65.666c.444.445.667.995.667 1.65s-.223 1.206-.667 1.65c-.444.445-.994.667-1.65.667s-1.206-.222-1.65-.667zM19.5 25.9l3.633-3.633-.533-2.634c-.711.512-1.456.995-2.233 1.45A40.49 40.49 0 0 1 18 22.367l1.5 3.533zM30.367 2.767c.2 3.022-.178 5.777-1.134 8.266-.955 2.49-2.533 4.834-4.733 7.034l-.067.066-.066.067.733 3.667c.067.333.05.655-.05.966-.1.312-.272.59-.517.834l-5.7 5.733L16 22.8l-5.667-5.667-6.6-2.833 5.734-5.7c.244-.244.522-.417.833-.517s.633-.116.967-.05l3.666.734a.247.247 0 0 1 .066-.049L15 8.717a.26.26 0 0 0 .067-.05c2.2-2.2 4.544-3.784 7.033-4.75s5.244-1.35 8.267-1.15zm-24.4 18.4c.777-.778 1.727-1.173 2.85-1.184 1.122-.01 2.072.373 2.85 1.15.777.778 1.16 1.728 1.15 2.85-.011 1.123-.406 2.073-1.184 2.85-.577.578-1.472 1.056-2.683 1.434S5.922 29 3.5 29.333c.333-2.422.683-4.244 1.05-5.466s.839-2.123 1.417-2.7zm1.4 1.433c-.311.333-.59.856-.834 1.567S6.078 25.789 5.9 26.9c1.111-.178 2.022-.389 2.733-.633.711-.245 1.234-.523 1.567-.834.422-.377.639-.85.65-1.416l.001-.061a2.02 2.02 0 0 0-.584-1.423 2.021 2.021 0 0 0-1.423-.584l-.064.001h.003a1.87 1.87 0 0 0-1.414.648l-.002.002z"/></symbol><symbol id="icon-touch" viewBox="0 0 32 32"><path d="M15.5 1.333c2.023 0 3.75.706 5.184 2.117 1.433 1.411 2.15 3.128 2.15 5.15a7.34 7.34 0 0 1-.75 3.267 7.432 7.432 0 0 1-2.1 2.588l-.017.012h-1.133V12.8a5.181 5.181 0 0 0 1.47-1.836l.013-.031a5.346 5.346 0 0 0 .517-2.31v-.024.001c0-1.467-.523-2.711-1.567-3.733s-2.3-1.534-3.767-1.534c-1.466 0-2.722.511-3.766 1.534S10.167 7.133 10.167 8.6c0 .822.172 1.6.517 2.333a5.188 5.188 0 0 0 1.472 1.859l.011.008v2.4a7.308 7.308 0 0 1-2.915-2.701l-.018-.032a7.266 7.266 0 0 1-1.067-3.812v-.058.003c0-2.022.717-3.739 2.15-5.15s3.161-2.117 5.183-2.117zm-1.266 28a2.66 2.66 0 0 1-1.067-.216 2.764 2.764 0 0 1-.867-.584l-6.866-6.866L7.3 19.733c.311-.31.661-.55 1.05-.716a1.819 1.819 0 0 1 1.23-.081l-.013-.003 2.6.6V8.667c0-.934.322-1.723.967-2.367.644-.644 1.433-.967 2.366-.967.934 0 1.723.323 2.367.967s.967 1.433.967 2.367V14.4h.866c.111 0 .211.022.3.067s.19.088.3.133l4.934 2.4c.533.244.927.639 1.183 1.183.255.545.328 1.106.217 1.684l-1.2 7.266a2.518 2.518 0 0 1-.929 1.58l-.005.004a2.68 2.68 0 0 1-1.714.616h-8.552zm-.267-2h9.367l1.433-8.3-6.1-3.033h-1.833V8.667c0-.4-.123-.723-.367-.967s-.567-.367-.967-.367-.722.123-.966.367c-.245.244-.367.567-.367.967v13.3l-5.133-1.1-.767.766 5.7 5.7zm9.367 0z"/></symbol><symbol id="icon-warning" viewBox="0 0 32 32"><path fill="none" stroke="#ff705d" style="stroke:var(--color1,#ff705d)" stroke-linejoin="round" stroke-linecap="round" stroke-width="2.286" d="M16 11.429v6.857M16.002 26.286a1.143 1.143 0 1 0 0-2.287 1.143 1.143 0 0 0 0 2.287z"/><path fill="none" stroke="#ff705d" style="stroke:var(--color1,#ff705d)" stroke-linejoin="round" stroke-linecap="round" stroke-width="2.286" d="M18.036 2.4a2.286 2.286 0 0 0-4.068 0L1.397 27.543a2.281 2.281 0 0 0 .094 2.224 2.287 2.287 0 0 0 1.941 1.09h25.143a2.28 2.28 0 0 0 1.941-1.09 2.292 2.292 0 0 0 .093-2.224L18.038 2.4z"/></symbol><symbol id="icon-required" viewBox="0 0 98 32"><path fill="#fe6060" style="fill:var(--color1,#fe6060)" d="M0 14.222C0 6.367 6.368 0 14.222 0h69.333c7.855 0 14.222 6.368 14.222 14.222S91.41 28.444 83.555 28.444h-28c-2.603-.028-4.063 1.213-6.667 3.556-2.603-2.342-4.063-3.584-6.667-3.556h-28c-7.855 0-14.222-6.368-14.222-14.222z"/><path fill="#faedeb" style="fill:var(--color2,#faedeb)" d="m12.402 12.073-1.762 5.112H9.575l2.22-5.898h.681l-.073.786zm1.475 5.112-1.766-5.112-.077-.786h.685l2.228 5.898h-1.069zm-.085-2.187v.806h-3.208v-.806h3.208zm2.762-4.035v6.222h-.98v-6.222h.98zm2.115 0v6.222h-.98v-6.222h.98zm4.391 6.222h-.98v-4.667c0-.354.07-.652.211-.895.143-.243.347-.428.612-.555a2.2 2.2 0 0 1 .952-.19c.216 0 .424.023.624.069.203.046.412.104.628.174l-.15.794a5.803 5.803 0 0 0-.458-.13 2.338 2.338 0 0 0-.579-.065c-.294 0-.512.068-.652.203-.138.132-.207.331-.207.595v4.667zm.879-4.383v.713h-2.532v-.713h2.532zm1.629 0v4.383h-.976v-4.383h.976zm3.022 4.464c-.324 0-.617-.053-.879-.158a1.933 1.933 0 0 1-.664-.45c-.181-.192-.32-.417-.417-.677s-.146-.539-.146-.839v-.162c0-.343.05-.653.15-.932s.239-.516.417-.713c.178-.2.389-.352.632-.458s.506-.158.79-.158c.313 0 .587.053.822.158s.429.254.583.446c.157.189.273.415.348.677.078.262.117.551.117.867v.417h-3.387v-.701h2.422v-.077a1.356 1.356 0 0 0-.105-.494c-.062-.154-.158-.278-.288-.373s-.302-.142-.519-.142a.881.881 0 0 0-.433.105c-.124.068-.228.166-.312.296s-.148.286-.194.47a2.654 2.654 0 0 0-.065.612v.162c0 .192.026.37.077.535.054.162.132.304.235.425s.227.217.373.288c.146.067.312.101.498.101.235 0 .444-.047.628-.142s.343-.228.478-.401l.515.498a1.86 1.86 0 0 1-.924.701 2.214 2.214 0 0 1-.753.117zm3.56-6.303v6.222h-.98v-6.222h.98zm3.744 5.315v-5.315h.98v6.222h-.887l-.093-.907zm-2.852-1.236v-.085c0-.332.039-.635.117-.907.078-.275.192-.512.34-.709.148-.2.329-.352.543-.458.213-.108.454-.162.721-.162.265 0 .497.051.697.154s.37.25.51.442c.14.189.252.416.336.681.084.262.143.554.178.875v.271c-.035.313-.095.6-.178.859s-.196.483-.336.672c-.14.189-.312.335-.514.438a1.51 1.51 0 0 1-.701.154c-.265 0-.504-.055-.717-.166-.211-.111-.39-.266-.539-.466s-.262-.435-.34-.705a3.22 3.22 0 0 1-.117-.887zm.976-.085v.085c0 .2.018.386.053.559.038.173.096.325.174.458.078.13.18.232.304.308a.895.895 0 0 0 .454.109c.221 0 .404-.049.547-.146s.255-.228.336-.393c.084-.167.14-.354.17-.559v-.733a1.804 1.804 0 0 0-.101-.446 1.2 1.2 0 0 0-.199-.361.846.846 0 0 0-.312-.243.984.984 0 0 0-.433-.089c-.178 0-.329.038-.454.113s-.227.18-.308.312c-.078.132-.136.286-.174.462s-.057.363-.057.563zm6.336 1.041a.485.485 0 0 0-.073-.263c-.049-.081-.142-.154-.279-.219a2.699 2.699 0 0 0-.6-.178 5.146 5.146 0 0 1-.64-.182c-.192-.073-.356-.161-.494-.263s-.244-.224-.32-.365-.113-.302-.113-.486c0-.178.039-.347.117-.506s.19-.3.336-.421c.146-.122.323-.217.531-.288a2.23 2.23 0 0 1 .705-.105c.367 0 .682.062.944.186.265.122.467.288.608.498.14.208.211.443.211.705h-.976a.627.627 0 0 0-.089-.324.62.62 0 0 0-.259-.247.887.887 0 0 0-.438-.097.95.95 0 0 0-.417.081.567.567 0 0 0-.243.203.521.521 0 0 0-.037.473c.03.057.078.109.146.158.068.046.159.089.276.13.119.04.267.08.446.117.335.07.623.161.863.271.243.108.429.248.559.421.13.17.194.386.194.648 0 .194-.042.373-.126.535-.081.159-.2.298-.356.417a1.776 1.776 0 0 1-.563.271 2.528 2.528 0 0 1-.729.097c-.397 0-.733-.07-1.009-.211a1.598 1.598 0 0 1-.628-.547 1.298 1.298 0 0 1-.211-.697h.944a.732.732 0 0 0 .15.433.812.812 0 0 0 .34.231c.138.046.279.069.425.069.176 0 .323-.023.442-.069a.634.634 0 0 0 .271-.194.465.465 0 0 0 .093-.284zm6.347.308v-2.09c0-.157-.028-.292-.085-.405s-.143-.201-.259-.263a.888.888 0 0 0-.429-.093c-.159 0-.297.027-.413.081s-.207.127-.271.219a.527.527 0 0 0-.097.312h-.972c0-.173.042-.34.126-.502s.205-.307.365-.433.35-.227.571-.3c.221-.073.47-.109.745-.109.329 0 .621.055.875.166.257.111.458.278.604.502.149.221.223.5.223.835v1.949c0 .2.014.379.04.539.03.157.072.293.126.409v.065h-1.001a1.722 1.722 0 0 1-.109-.401 3.318 3.318 0 0 1-.036-.478zm.142-1.786.008.604h-.701c-.181 0-.34.018-.478.053-.138.032-.252.081-.344.146a.634.634 0 0 0-.276.547c0 .116.027.223.081.32a.563.563 0 0 0 .235.223.825.825 0 0 0 .381.081c.2 0 .374-.041.523-.122.151-.084.27-.185.356-.304a.671.671 0 0 0 .138-.344l.316.433c-.032.111-.088.23-.166.356s-.181.248-.308.365a1.511 1.511 0 0 1-1.05.388c-.286 0-.541-.057-.766-.17a1.359 1.359 0 0 1-.527-.466 1.206 1.206 0 0 1-.19-.668c0-.232.043-.437.13-.616.089-.181.219-.332.389-.454.173-.122.383-.213.632-.275a3.37 3.37 0 0 1 .851-.097h.766zm2.84-.883v3.549h-.976v-4.383h.932l.045.835zm1.341-.863-.008.907a2.755 2.755 0 0 0-.397-.032c-.167 0-.315.024-.442.073a.82.82 0 0 0-.514.519 1.436 1.436 0 0 0-.081.417l-.223.016c0-.275.027-.531.081-.766s.135-.442.243-.62c.111-.178.248-.317.413-.417.167-.1.361-.15.579-.15a1.178 1.178 0 0 1 .348.053zm2.463 4.492c-.324 0-.617-.053-.879-.158a1.933 1.933 0 0 1-.664-.45c-.181-.192-.32-.417-.417-.677s-.146-.539-.146-.839v-.162c0-.343.05-.653.15-.932s.239-.516.417-.713c.178-.2.389-.352.632-.458s.506-.158.79-.158c.313 0 .587.053.822.158s.429.254.583.446c.157.189.273.415.348.677.078.262.117.551.117.867v.417h-3.387v-.701h2.422v-.077a1.376 1.376 0 0 0-.105-.494c-.062-.154-.158-.278-.288-.373s-.302-.142-.519-.142a.881.881 0 0 0-.433.105c-.124.068-.228.166-.312.296s-.149.286-.194.47a2.654 2.654 0 0 0-.065.612v.162c0 .192.026.37.077.535.054.162.132.304.235.425s.227.217.373.288c.146.067.312.101.498.101.235 0 .444-.047.628-.142s.343-.228.478-.401l.514.498a1.86 1.86 0 0 1-.924.701 2.214 2.214 0 0 1-.753.117zm5.562-3.629v3.549h-.976v-4.383h.932l.045.835zm1.34-.863-.008.907a2.75 2.75 0 0 0-.397-.032c-.168 0-.315.024-.441.073a.82.82 0 0 0-.514.519 1.436 1.436 0 0 0-.081.417l-.223.016c0-.275.027-.531.081-.766s.135-.442.243-.62c.111-.178.249-.317.413-.417a1.19 1.19 0 0 1 .928-.097zm2.463 4.492c-.324 0-.617-.053-.879-.158a1.933 1.933 0 0 1-.664-.45c-.181-.192-.32-.417-.417-.677s-.146-.539-.146-.839v-.162c0-.343.05-.653.15-.932s.239-.516.417-.713c.178-.2.389-.352.632-.458s.507-.158.79-.158c.313 0 .587.053.823.158s.43.254.583.446c.157.189.273.415.348.677.078.262.117.551.117.867v.417H61.22v-.701h2.422v-.077a1.356 1.356 0 0 0-.105-.494c-.062-.154-.158-.278-.288-.373s-.302-.142-.519-.142a.881.881 0 0 0-.433.105c-.124.068-.228.166-.312.296s-.149.286-.195.47a2.654 2.654 0 0 0-.065.612v.162c0 .192.025.37.077.535.054.162.132.304.235.425s.227.217.373.288c.146.067.312.101.498.101.235 0 .444-.047.628-.142s.343-.228.478-.401l.515.498a1.86 1.86 0 0 1-.924.701 2.216 2.216 0 0 1-.754.117zm5.185 1.604v-5.197l.114-.871h.871v6.068h-.985zm-2.847-3.832v-.085c0-.332.038-.635.113-.907.076-.275.188-.512.337-.709s.329-.348.543-.454a1.61 1.61 0 0 1 .737-.162c.27 0 .505.051.705.154.203.103.373.25.511.442.14.189.252.415.336.677s.145.554.183.875v.271c-.036.313-.095.6-.178.859s-.196.483-.337.672-.312.336-.514.442c-.203.103-.44.154-.713.154s-.516-.055-.729-.166a1.574 1.574 0 0 1-.543-.466 2.316 2.316 0 0 1-.337-.709 3.335 3.335 0 0 1-.113-.887zm.976-.085v.085c0 .2.018.387.053.563.038.173.097.327.178.462.081.132.184.236.308.312s.274.113.45.113c.23 0 .417-.05.563-.15a.973.973 0 0 0 .341-.401c.081-.17.137-.358.17-.563v-.733a2.122 2.122 0 0 0-.101-.446 1.145 1.145 0 0 0-.203-.365.836.836 0 0 0-.316-.243 1.031 1.031 0 0 0-.446-.089c-.175 0-.327.038-.454.113s-.231.181-.312.316c-.078.132-.136.286-.174.462s-.057.363-.057.563zm6.538 1.199v-3.35h.981v4.383h-.924l-.057-1.033zm.138-.911.328-.008c0 .294-.033.566-.097.814-.065.246-.165.46-.3.644a1.393 1.393 0 0 1-.519.425c-.211.1-.463.15-.758.15-.213 0-.409-.031-.587-.093s-.332-.158-.462-.288c-.127-.13-.226-.298-.296-.506s-.105-.456-.105-.745v-2.832h.977v2.84c0 .159.018.293.056.401.038.105.089.19.154.255s.14.111.227.138c.087.027.178.04.276.04.278 0 .497-.054.656-.162a.892.892 0 0 0 .344-.446c.071-.186.105-.396.105-.628zm2.888-2.439v4.383h-.98v-4.383h.98zm-1.045-1.15c0-.149.049-.271.146-.369.1-.1.238-.15.414-.15.172 0 .309.05.409.15.1.097.15.22.15.369 0 .146-.05.267-.15.365s-.236.146-.409.146a.571.571 0 0 1-.414-.146.496.496 0 0 1-.146-.365zm3.095 1.985v3.549h-.977v-4.383h.932l.044.835zm1.341-.863-.008.907a2.755 2.755 0 0 0-.397-.032c-.168 0-.315.024-.441.073a.828.828 0 0 0-.514.519 1.436 1.436 0 0 0-.081.417l-.223.016c0-.275.027-.531.081-.766s.135-.442.243-.62c.111-.178.248-.317.413-.417.168-.1.361-.15.58-.15a1.178 1.178 0 0 1 .348.053zm2.463 4.492c-.324 0-.617-.053-.879-.158a1.933 1.933 0 0 1-.664-.45c-.181-.192-.32-.417-.417-.677s-.146-.539-.146-.839v-.162c0-.343.05-.653.15-.932s.239-.516.417-.713c.178-.2.389-.352.632-.458s.506-.158.79-.158c.313 0 .587.053.822.158s.43.254.584.446c.156.189.273.415.348.677.078.262.117.551.117.867v.417h-3.387v-.701h2.423v-.077a1.356 1.356 0 0 0-.105-.494c-.062-.154-.158-.278-.287-.373s-.303-.142-.519-.142a.888.888 0 0 0-.434.105c-.124.068-.228.166-.312.296s-.149.286-.194.47a2.654 2.654 0 0 0-.065.612v.162c0 .192.026.37.077.535.054.162.133.304.235.425s.227.217.373.288c.146.067.312.101.498.101.235 0 .444-.047.628-.142s.343-.228.478-.401l.514.498c-.095.138-.217.27-.369.397a1.873 1.873 0 0 1-.555.304 2.214 2.214 0 0 1-.753.117zm5.189-.988v-5.315h.98v6.222h-.887l-.093-.907zm-2.852-1.236v-.085c0-.332.039-.635.117-.907.079-.275.192-.512.341-.709.148-.2.329-.352.543-.458a1.57 1.57 0 0 1 .721-.162c.265 0 .497.051.697.154s.37.25.511.442c.14.189.252.416.336.681.084.262.143.554.178.875v.271c-.036.313-.095.6-.178.859s-.196.483-.336.672c-.14.189-.312.335-.515.438-.2.103-.433.154-.7.154-.265 0-.504-.055-.717-.166-.211-.111-.391-.266-.539-.466s-.262-.435-.341-.705a3.22 3.22 0 0 1-.117-.887zm.977-.085v.085c0 .2.017.386.053.559.037.173.095.325.174.458.079.13.18.232.304.308a.898.898 0 0 0 .454.109c.221 0 .404-.049.547-.146s.255-.228.336-.393c.084-.167.14-.354.17-.559v-.733a1.804 1.804 0 0 0-.101-.446 1.178 1.178 0 0 0-.199-.361.838.838 0 0 0-.312-.243.982.982 0 0 0-.434-.089c-.178 0-.329.038-.453.113s-.227.18-.308.312c-.078.132-.136.286-.174.462s-.056.363-.056.563z"/></symbol><symbol id="icon-star" viewBox="-1 0 34 32"><path d="M14.421 1.037c.584-1.383 2.575-1.383 3.159 0l3.449 8.164a1.71 1.71 0 0 0 1.443 1.032l8.952.707c1.517.12 2.132 1.983.976 2.958l-6.821 5.752a1.67 1.67 0 0 0-.551 1.67l2.084 8.6c.353 1.457-1.257 2.609-2.556 1.828l-7.664-4.609a1.734 1.734 0 0 0-1.783 0l-7.664 4.609c-1.299.781-2.909-.371-2.556-1.828l2.084-8.6a1.67 1.67 0 0 0-.551-1.67l-6.821-5.752c-1.156-.975-.541-2.838.976-2.958l8.952-.707a1.71 1.71 0 0 0 1.443-1.032l3.449-8.164z"/></symbol></defs></svg>