<svg aria-hidden="true" style="position: absolute; width: 0; height: 0; overflow: hidden;" version="1.1" xmlns="http://www.w3.org/2000/svg" xmlns:xlink="http://www.w3.org/1999/xlink">
<defs>
<symbol id="icon-logo" viewBox="0 0 41 32">
<path fill="#ffe550" style="fill: var(--color1, #ffe550)" d="M14.123 6.486c0.464-0.891 1.381-1.489 2.437-1.489s1.973 0.598 2.43 1.474l0.007 0.015 1.268 2.474c0.397 0.766 1.126 1.314 1.99 1.456l0.016 0.002 2.757 0.443c2.203 0.351 3.083 3.040 1.508 4.615l-1.982 2c-0.615 0.615-0.905 1.489-0.769 2.345l0.437 2.769c0.021 0.127 0.033 0.274 0.033 0.423 0 1.509-1.223 2.732-2.732 2.732-0.455 0-0.883-0.111-1.26-0.307l0.015 0.007-2.474-1.255c-0.362-0.188-0.79-0.298-1.243-0.298s-0.881 0.11-1.258 0.305l0.015-0.007-2.474 1.255c-0.362 0.189-0.791 0.3-1.245 0.3-1.509 0-2.732-1.223-2.732-2.732 0-0.149 0.012-0.296 0.035-0.439l-0.002 0.016 0.431-2.769c0.021-0.128 0.033-0.275 0.033-0.425 0-0.749-0.302-1.427-0.79-1.92l0 0-1.988-1.994c-0.49-0.493-0.793-1.172-0.793-1.923 0-1.356 0.989-2.48 2.285-2.691l0.016-0.002 2.757-0.443c0.883-0.143 1.614-0.691 2.005-1.443l0.007-0.015 1.262-2.474z"></path>
<path fill="#2c2c2c" style="fill: var(--color2, #2c2c2c)" d="M1.12 20.357h-0.025l-0.012 0.905c-0.008 0.448-0.013 0.976-0.013 1.505 0 0.087 0 0.175 0 0.262l-0-0.014c0 0.123-0.006 0.215-0.018 0.295l-0.018 0.209c-0.012 0.123-0.043 0.197-0.086 0.209-0.092 0.018-0.234-0.049-0.431-0.215s-0.308-0.314-0.345-0.443c-0.031-0.123-0.037-1.058-0.018-2.8 0.025-1.742-0.025-2.886-0.135-3.434-0.011-0.035-0.017-0.076-0.017-0.118 0-0.055 0.011-0.108 0.030-0.156l-0.001 0.003c0.037-0.166 0.222-0.326 0.554-0.468 0.338-0.148 0.843-0.308 1.52-0.462 0.677-0.166 1.225-0.252 1.625-0.271 0.406-0.025 0.622 0.031 0.652 0.154 0.025 0.086-0.025 0.16-0.135 0.228l-0.302 0.16c-0.003 0.013-0.251 0.106-0.501 0.197l-0.25 0.080c-0.431 0.126-0.775 0.247-1.11 0.384l0.076-0.028-0.677 0.24-0.548 0.197 0.037 0.092c0.080 0.332 0.123 1.132 0.123 2.394 0.449-0.086 0.923-0.209 1.415-0.369s0.8-0.258 0.923-0.283c0.265-0.062 0.412-0.043 0.443 0.074 0.049 0.215-0.215 0.474-0.8 0.769-0.572 0.295-1.231 0.529-1.957 0.702zM8.068 18.4c-0.055-0.246-0.148-0.462-0.277-0.658-0.104-0.176-0.258-0.312-0.443-0.392l-0.006-0.002c-0.462 0.246-0.794 0.726-1.003 1.434-0.116 0.342-0.183 0.736-0.183 1.145 0 0.257 0.026 0.508 0.077 0.75l-0.004-0.024c0.129 0.542 0.345 0.849 0.646 0.923 0.492-0.222 0.843-0.677 1.058-1.354 0.215-0.683 0.265-1.292 0.135-1.828zM5.292 19.151c0.123-0.615 0.332-1.145 0.646-1.594 0.252-0.401 0.638-0.697 1.094-0.827l0.013-0.003c0.431-0.098 0.825 0 1.194 0.289s0.615 0.689 0.738 1.206c0.123 0.511 0.117 1.065 0 1.662-0.123 0.591-0.369 1.108-0.726 1.569-0.305 0.414-0.741 0.716-1.246 0.846l-0.016 0.003c-0.075 0.018-0.162 0.029-0.251 0.029-0.3 0-0.571-0.119-0.771-0.312l0 0c-0.331-0.305-0.566-0.711-0.656-1.168l-0.002-0.014c-0.123-0.517-0.129-1.077-0.018-1.686zM12.898 17.255c-0.062-0.246-0.154-0.462-0.283-0.652-0.103-0.178-0.258-0.317-0.443-0.398l-0.006-0.002c-0.462 0.252-0.794 0.732-1.003 1.44-0.113 0.338-0.179 0.727-0.179 1.131 0 0.26 0.027 0.513 0.078 0.758l-0.004-0.024c0.123 0.548 0.345 0.855 0.646 0.923 0.486-0.222 0.837-0.671 1.046-1.348 0.222-0.689 0.271-1.292 0.148-1.828zM10.117 18.012c0.123-0.615 0.332-1.138 0.646-1.588 0.251-0.403 0.637-0.701 1.094-0.834l0.013-0.003c0.431-0.098 0.825 0 1.194 0.289s0.615 0.689 0.738 1.206c0.123 0.511 0.123 1.065 0 1.662-0.123 0.591-0.369 1.114-0.72 1.575-0.305 0.414-0.741 0.716-1.246 0.846l-0.016 0.003c-0.075 0.018-0.162 0.029-0.251 0.029-0.303 0-0.577-0.121-0.777-0.318l0 0c-0.33-0.304-0.565-0.707-0.656-1.162l-0.002-0.014c-0.123-0.517-0.123-1.083-0.018-1.692zM17.932 11.015c0.117-0.031 0.277 0.043 0.492 0.222 0.222 0.16 0.351 0.338 0.394 0.523s0.080 0.726 0.105 1.631c0.025 0.905 0.031 1.84 0.012 2.818-0.018 2.185-0.117 3.298-0.277 3.342-0.098 0.018-0.222-0.012-0.369-0.105-0.148-0.098-0.228-0.197-0.252-0.289-0.032-0.167-0.054-0.364-0.061-0.565l-0-0.007c-0.523 0.874-1.046 1.372-1.563 1.495-0.314 0.074-0.634 0-0.954-0.222-0.314-0.228-0.511-0.492-0.578-0.8-0.042-0.257-0.065-0.553-0.065-0.854 0-0.987 0.255-1.914 0.702-2.719l-0.015 0.029c0.326-0.597 0.745-0.96 1.249-1.077 0.505-0.123 0.923 0.098 1.268 0.652 0.006-1.588-0.074-2.818-0.246-3.698-0.049-0.215 0-0.338 0.16-0.375zM17.994 16.511c-0.073-0.355-0.223-0.666-0.434-0.927l0.003 0.004c-0.185-0.228-0.375-0.326-0.56-0.283-0.308 0.074-0.572 0.338-0.8 0.788-0.313 0.61-0.496 1.33-0.496 2.093 0 0.247 0.019 0.49 0.056 0.727l-0.003-0.026c0.031 0.129 0.098 0.222 0.209 0.277 0.111 0.062 0.228 0.068 0.357 0.037 0.277-0.062 0.603-0.351 0.978-0.862 0.355-0.457 0.604-1.015 0.699-1.623l0.003-0.020v-0.135l-0.012-0.049zM24.794 15.865c0.135 0.578-0.012 1.132-0.443 1.649-0.423 0.502-0.998 0.863-1.653 1.012l-0.020 0.004c-0.677 0.16-1.268 0.123-1.791-0.123s-0.825-0.535-0.898-0.843c-0.049-0.215-0.012-0.332 0.117-0.369 0.111-0.025 0.375 0.092 0.794 0.357 0.154 0.086 0.351 0.16 0.591 0.215 0.246 0.062 0.492 0.055 0.726 0 0.488-0.109 0.908-0.355 1.23-0.694l0.001-0.001c0.332-0.351 0.462-0.677 0.394-0.972-0.049-0.185-0.234-0.4-0.554-0.64-0.332-0.234-0.677-0.449-1.058-0.64-0.369-0.197-0.714-0.412-1.046-0.658-0.326-0.246-0.511-0.455-0.554-0.634-0.025-0.109-0.039-0.235-0.039-0.364 0-0.078 0.005-0.155 0.015-0.23l-0.001 0.009c0.025-0.215 0.068-0.382 0.135-0.492 0.203-0.369 0.566-0.751 1.089-1.145 0.392-0.323 0.856-0.576 1.362-0.731l0.028-0.007c0.203-0.043 0.394-0.018 0.566 0.086 0.172 0.098 0.277 0.222 0.314 0.369 0.018 0.074-0.043 0.148-0.185 0.228l-0.64 0.332c-0.283 0.129-0.529 0.271-0.738 0.418-0.745 0.505-1.083 0.905-1.015 1.194 0.037 0.154 0.554 0.492 1.557 1.015 0.415 0.219 0.772 0.471 1.094 0.761l-0.005-0.004c0.345 0.308 0.554 0.603 0.628 0.898zM27.237 16.394c0.031 0.135 0.123 0.185 0.283 0.148 0.271-0.062 0.578-0.215 0.923-0.455 0.357-0.246 0.554-0.375 0.597-0.388 0.129-0.031 0.209 0.025 0.246 0.16 0.043 0.203-0.111 0.492-0.474 0.862-0.357 0.369-0.708 0.591-1.058 0.677-0.338 0.080-0.646 0.055-0.917-0.074-0.271-0.142-0.431-0.308-0.48-0.505-0.043-0.197-0.062-0.462-0.049-0.788 0.012-0.332 0.037-0.763 0.074-1.305 0.043-0.554 0.074-1.003 0.086-1.354-0.314 0.154-0.529 0.246-0.646 0.271-0.111 0.031-0.24 0-0.382-0.086-0.135-0.098-0.215-0.197-0.24-0.308-0.037-0.166 0.388-0.437 1.274-0.812-0.012-0.615-0.074-1.151-0.185-1.606-0.043-0.215 0-0.338 0.142-0.369 0.123-0.031 0.289 0.012 0.505 0.123 0.209 0.111 0.338 0.258 0.388 0.449 0.043 0.191 0.062 0.542 0.055 1.052 0.394-0.129 0.714-0.222 0.954-0.283 0.431-0.098 0.665-0.062 0.708 0.123 0.025 0.111-0.074 0.228-0.289 0.351-0.209 0.123-0.665 0.351-1.372 0.677-0.012 0.591-0.049 1.28-0.111 2.055-0.055 0.769-0.062 1.231-0.031 1.385zM32 10.831c0.32-0.080 0.652 0.012 1.003 0.277 0.345 0.252 0.548 0.511 0.609 0.775 0.062 0.252 0.031 0.535-0.080 0.849 0.111 0.086 0.172 0.166 0.191 0.246 0.049 0.197 0.086 0.548 0.105 1.046 0.034 0.661 0.076 1.223 0.129 1.782l-0.012-0.158c0.012 0.185-0.031 0.289-0.129 0.308-0.129 0.037-0.265-0.049-0.4-0.246-0.129-0.209-0.246-0.492-0.345-0.843-0.443 0.954-0.935 1.489-1.477 1.618-0.32 0.080-0.677 0.018-1.065-0.185-0.375-0.209-0.603-0.462-0.677-0.763-0.098-0.425-0.062-0.985 0.098-1.68 0.166-0.708 0.437-1.36 0.818-1.969 0.382-0.603 0.794-0.96 1.231-1.065zM32.935 12.578c-0.154-0.658-0.369-0.954-0.628-0.892-0.277 0.062-0.554 0.338-0.831 0.825-0.262 0.447-0.476 0.963-0.613 1.51l-0.009 0.041c-0.084 0.259-0.133 0.557-0.133 0.866 0 0.142 0.010 0.281 0.030 0.417l-0.002-0.016c0.031 0.123 0.098 0.209 0.222 0.265 0.111 0.043 0.24 0.055 0.369 0.018 0.338-0.080 0.665-0.388 0.978-0.935 0.308-0.554 0.468-1.169 0.48-1.852 0-0.111 0.043-0.185 0.135-0.234v-0.012z"></path>
<path fill="#bbf330" style="fill: var(--color3, #bbf330)" d="M30.751 19.975c-0.308 0.074-0.542 0.308-0.646 0.603-1.967 5.691-7.28 9.706-13.53 9.706-3.812 0-7.275-1.493-9.836-3.927l0.006 0.006c-0.166-0.16-0.392-0.259-0.641-0.259-0.076 0-0.15 0.009-0.221 0.026l0.006-0.001c-0.64 0.154-0.88 0.929-0.406 1.391 2.872 2.766 6.783 4.47 11.093 4.47 7.039 0 13.017-4.546 15.157-10.862l0.033-0.113c0.203-0.628-0.369-1.2-1.015-1.046zM1.865 14.154c0.345-0.092 0.603-0.382 0.671-0.732 1.266-6.699 7.073-11.698 14.047-11.698 4.538 0 8.582 2.116 11.198 5.416l0.023 0.030c0.222 0.283 0.585 0.412 0.929 0.332 0.585-0.148 0.849-0.825 0.486-1.298-2.955-3.774-7.511-6.176-12.629-6.176-7.846 0-14.373 5.648-15.738 13.099l-0.015 0.098c-0.111 0.591 0.443 1.071 1.028 0.923zM40.615 5.329c-3.778 7.243-5.434 2.462-10.757 5.274 0.542-8.406 6.166-3.292 10.757-5.274z"></path>
</symbol>
<symbol id="icon-favicon" viewBox="0 0 32 32">
<path fill="#fff" style="fill: var(--color1, #fff)" d="M5.333 0h21.333v21.333h-21.333z"></path>
<path fill="#ffe550" style="fill: var(--color4, #ffe550)" d="M14.371 4.304c0.675-1.321 2.56-1.321 3.235 0l0.853 1.673c0.265 0.517 0.76 0.877 1.333 0.968l1.851 0.293c1.465 0.235 2.048 2.033 1 3.084l-1.321 1.323c-0.411 0.412-0.6 0.995-0.511 1.571l0.293 1.848c0.231 1.467-1.296 2.579-2.617 1.907l-1.676-0.853c-0.239-0.124-0.522-0.197-0.823-0.197s-0.583 0.073-0.833 0.202l0.010-0.005-1.675 0.853c-1.321 0.672-2.848-0.44-2.616-1.907l0.291-1.848c0.014-0.086 0.022-0.184 0.022-0.285 0-0.502-0.203-0.957-0.532-1.286l0 0-1.32-1.323c-1.049-1.051-0.467-2.849 1-3.083l1.849-0.293c0.573-0.093 1.068-0.453 1.333-0.969l0.853-1.673z"></path>
<path fill="#bbf330" style="fill: var(--color5, #bbf330)" d="M16 21.333v0c-5.891 0-10.667-4.776-10.667-10.667s4.776-10.667 10.667-10.667v0c5.891 0 10.667 4.776 10.667 10.667s-4.776 10.667-10.667 10.667zM16 20.196c0.047 0.001 0.103 0.001 0.159 0.001 5.264 0 9.531-4.267 9.531-9.531s-4.267-9.531-9.531-9.531c-0.056 0-0.112 0-0.168 0.001l0.008-0c-0.047-0.001-0.103-0.001-0.159-0.001-5.264 0-9.531 4.267-9.531 9.531s4.267 9.531 9.531 9.531c0.056 0 0.112-0 0.168-0.001l-0.008 0z"></path>
</symbol>
<symbol id="icon-arrow" viewBox="0 0 37 32">
<path fill="#fff" style="fill: var(--color1, #fff)" d="M2.667 21.333v-16c0-2.946 2.388-5.333 5.333-5.333h21.333c2.946 0 5.333 2.388 5.333 5.333v16c0 2.946-2.388 5.333-5.333 5.333h-21.333c-2.946 0-5.333-2.388-5.333-5.333z"></path>
<path fill="#2c2c2c" style="fill: var(--color2, #2c2c2c)" d="M11.633 13.937l9.289 8.85c0.149 0.142 0.352 0.23 0.575 0.23s0.426-0.088 0.575-0.23l0.010-0.010c0.147-0.14 0.238-0.337 0.238-0.556s-0.091-0.416-0.238-0.555l-0-0-8.747-8.333 8.747-8.33c0.147-0.14 0.239-0.337 0.239-0.556s-0.092-0.416-0.238-0.556l-0.010-0.010c-0.149-0.142-0.352-0.23-0.575-0.23s-0.426 0.088-0.575 0.23l0-0-9.289 8.85c-0.159 0.152-0.258 0.366-0.258 0.603s0.099 0.451 0.258 0.603l0 0z"></path>
</symbol>
<symbol id="icon-modal-close" viewBox="0 0 30 32">
<path d="M16.219 14.826l4.928-4.923c0.156-0.177 0.252-0.412 0.252-0.668 0-0.559-0.453-1.013-1.013-1.013-0.257 0-0.492 0.096-0.67 0.253l0.001-0.001-4.927 4.874-4.959-4.955c-0.175-0.146-0.402-0.235-0.649-0.235-0.56 0-1.014 0.454-1.014 1.014 0 0.247 0.089 0.474 0.236 0.65l-0.001-0.002 4.948 5.006-4.847 4.782c-0.211 0.187-0.344 0.458-0.344 0.76 0 0.559 0.454 1.013 1.013 1.013 0.303 0 0.574-0.133 0.76-0.343l0.001-0.001 4.836-4.832 4.806 4.801c0.175 0.146 0.402 0.235 0.649 0.235 0.56 0 1.014-0.454 1.014-1.014 0-0.247-0.089-0.474-0.236-0.65l0.001 0.002-4.785-4.751z"></path>
</symbol>
<symbol id="icon-star" viewBox="0 0 202 32">
<path d="M15.421 1.037c0.584-1.383 2.575-1.383 3.159 0l3.449 8.164c0.247 0.583 0.804 0.982 1.443 1.032l8.952 0.707c1.517 0.12 2.132 1.983 0.976 2.958l-6.821 5.752c-0.487 0.411-0.7 1.056-0.551 1.67l2.084 8.6c0.353 1.457-1.257 2.609-2.556 1.828l-7.664-4.609c-0.547-0.329-1.236-0.329-1.783 0l-7.664 4.609c-1.299 0.781-2.909-0.371-2.556-1.828l2.084-8.6c0.149-0.614-0.064-1.259-0.551-1.67l-6.821-5.752c-1.156-0.975-0.541-2.838 0.976-2.958l8.952-0.707c0.639-0.050 1.196-0.449 1.443-1.032l3.449-8.164z"></path>
</symbol>
<symbol id="icon-burger" viewBox="0 0 32 32">
<path d="M2.666 8c0-0.737 0.597-1.334 1.334-1.334v0h24c0.737 0 1.334 0.597 1.334 1.334s-0.597 1.334-1.334 1.334h-24c-0.737 0-1.334-0.597-1.334-1.334v0zM2.666 16.042c0.001-0.736 0.598-1.333 1.334-1.333 0 0 0 0 0 0h24c0.012-0 0.025-0.001 0.039-0.001 0.737 0 1.334 0.597 1.334 1.334s-0.597 1.334-1.334 1.334c-0.014 0-0.027-0-0.041-0.001l0.002 0h-24c-0.737 0-1.334-0.597-1.334-1.334v0zM4 22.752c-0.72 0.022-1.295 0.61-1.295 1.333s0.575 1.311 1.293 1.333l0.002 0h24c0.012 0 0.025 0.001 0.039 0.001 0.737 0 1.334-0.597 1.334-1.334s-0.597-1.334-1.334-1.334c-0.014 0-0.027 0-0.041 0.001l0.002-0h-24z"></path>
</symbol>
<symbol id="icon-rocket" viewBox="0 0 32 32">
<path d="M7.233 13.633l3.534 1.5c0.4-0.8 0.827-1.588 1.283-2.366s0.939-1.522 1.45-2.234l-2.633-0.533-3.634 3.633zM12.367 16.333l4.433 4.434c1.383-0.632 2.553-1.289 3.663-2.027l-0.096 0.060c1.11-0.733 2.010-1.444 2.7-2.133 1.8-1.8 3.122-3.645 3.966-5.534s1.3-4.022 1.367-6.4c-2.378 0.067-4.511 0.523-6.4 1.367s-3.733 2.167-5.533 3.967c-0.69 0.689-1.4 1.589-2.134 2.7-0.678 1.014-1.334 2.183-1.899 3.404l-0.067 0.162zM20 13.133c-0.444-0.444-0.667-0.994-0.667-1.65 0-0.655 0.223-1.205 0.667-1.65s0.994-0.666 1.65-0.666 1.206 0.222 1.65 0.666c0.444 0.445 0.667 0.995 0.667 1.65s-0.223 1.206-0.667 1.65c-0.444 0.445-0.994 0.667-1.65 0.667s-1.206-0.222-1.65-0.667zM19.5 25.9l3.633-3.633-0.533-2.634c-0.711 0.512-1.456 0.995-2.233 1.45-0.778 0.456-1.567 0.884-2.367 1.284l1.5 3.533zM30.367 2.767c0.2 3.022-0.178 5.777-1.134 8.266-0.955 2.49-2.533 4.834-4.733 7.034l-0.067 0.066-0.066 0.067 0.733 3.667c0.067 0.333 0.050 0.655-0.050 0.966-0.1 0.312-0.272 0.59-0.517 0.834l-5.7 5.733-2.833-6.6-5.667-5.667-6.6-2.833 5.734-5.7c0.244-0.244 0.522-0.417 0.833-0.517s0.633-0.116 0.967-0.050l3.666 0.734c0.019-0.020 0.041-0.036 0.066-0.049l0.001-0.001c0.026-0.014 0.048-0.030 0.067-0.050l0-0c2.2-2.2 4.544-3.784 7.033-4.75s5.244-1.35 8.267-1.15zM5.967 21.167c0.777-0.778 1.727-1.173 2.85-1.184 1.122-0.010 2.072 0.373 2.85 1.15 0.777 0.778 1.16 1.728 1.15 2.85-0.011 1.123-0.406 2.073-1.184 2.85-0.577 0.578-1.472 1.056-2.683 1.434s-3.028 0.733-5.45 1.066c0.333-2.422 0.683-4.244 1.050-5.466s0.839-2.123 1.417-2.7zM7.367 22.6c-0.311 0.333-0.59 0.856-0.834 1.567s-0.455 1.622-0.633 2.733c1.111-0.178 2.022-0.389 2.733-0.633 0.711-0.245 1.234-0.523 1.567-0.834 0.422-0.377 0.639-0.85 0.65-1.416 0.001-0.018 0.001-0.040 0.001-0.061 0-0.555-0.223-1.057-0.584-1.423l0 0c-0.366-0.361-0.869-0.584-1.423-0.584-0.021 0-0.043 0-0.064 0.001l0.003-0c-0.565 0.001-1.071 0.252-1.414 0.648l-0.002 0.002z"></path>
</symbol>
<symbol id="icon-touch" viewBox="0 0 32 32">
<path d="M15.5 1.333c2.023 0 3.75 0.706 5.184 2.117 1.433 1.411 2.15 3.128 2.15 5.15 0 1.156-0.25 2.244-0.75 3.267-0.515 1.040-1.229 1.91-2.1 2.588l-0.017 0.012h-1.133v-1.667c0.627-0.495 1.128-1.12 1.47-1.836l0.013-0.031c0.326-0.677 0.517-1.471 0.517-2.31 0-0.008-0-0.016-0-0.024v0.001c0-1.467-0.523-2.711-1.567-3.733s-2.3-1.534-3.767-1.534c-1.466 0-2.722 0.511-3.766 1.534s-1.567 2.266-1.567 3.733c0 0.822 0.172 1.6 0.517 2.333 0.355 0.747 0.856 1.372 1.472 1.859l0.011 0.008v2.4c-1.227-0.632-2.223-1.564-2.915-2.701l-0.018-0.032c-0.67-1.086-1.067-2.403-1.067-3.812 0-0.019 0-0.039 0-0.058l-0 0.003c0-2.022 0.717-3.739 2.15-5.15s3.161-2.117 5.183-2.117zM14.234 29.333c-0.378 0-0.734-0.072-1.067-0.216-0.337-0.145-0.624-0.342-0.867-0.584l-6.866-6.866 1.866-1.934c0.311-0.31 0.661-0.55 1.050-0.716 0.214-0.095 0.464-0.151 0.727-0.151 0.174 0 0.343 0.024 0.503 0.070l-0.013-0.003 2.6 0.6v-10.866c0-0.934 0.322-1.723 0.967-2.367 0.644-0.644 1.433-0.967 2.366-0.967 0.934 0 1.723 0.323 2.367 0.967s0.967 1.433 0.967 2.367v5.733h0.866c0.111 0 0.211 0.022 0.3 0.067s0.19 0.088 0.3 0.133l4.934 2.4c0.533 0.244 0.927 0.639 1.183 1.183 0.255 0.545 0.328 1.106 0.217 1.684l-1.2 7.266c-0.106 0.647-0.446 1.2-0.929 1.58l-0.005 0.004c-0.462 0.383-1.061 0.616-1.714 0.616-0.007 0-0.013-0-0.020-0h-8.532zM13.967 27.333h9.367l1.433-8.3-6.1-3.033h-1.833v-7.333c0-0.4-0.123-0.723-0.367-0.967s-0.567-0.367-0.967-0.367-0.722 0.123-0.966 0.367c-0.245 0.244-0.367 0.567-0.367 0.967v13.3l-5.133-1.1-0.767 0.766 5.7 5.7zM23.334 27.333v0z"></path>
</symbol>
<symbol id="icon-warning" viewBox="0 0 32 32">
<path fill="none" stroke="#ff705d" style="stroke: var(--color1, #ff705d)" stroke-linejoin="round" stroke-linecap="round" stroke-miterlimit="4" stroke-width="2.2857" d="M16 11.429v6.857"></path>
<path fill="none" stroke="#ff705d" style="stroke: var(--color1, #ff705d)" stroke-linejoin="round" stroke-linecap="round" stroke-miterlimit="4" stroke-width="2.2857" d="M16.002 26.286c0.631 0 1.143-0.512 1.143-1.143s-0.512-1.143-1.143-1.143c-0.631 0-1.143 0.512-1.143 1.143s0.512 1.143 1.143 1.143z"></path>
<path fill="none" stroke="#ff705d" style="stroke: var(--color1, #ff705d)" stroke-linejoin="round" stroke-linecap="round" stroke-miterlimit="4" stroke-width="2.2857" d="M18.036 2.4c-0.192-0.374-0.483-0.689-0.842-0.908s-0.771-0.336-1.192-0.336c-0.421 0-0.833 0.116-1.192 0.336s-0.65 0.534-0.842 0.908l-12.571 25.143c-0.175 0.348-0.259 0.735-0.242 1.124s0.132 0.768 0.336 1.1c0.204 0.332 0.489 0.606 0.829 0.797s0.723 0.291 1.112 0.293h25.143c0.39-0.001 0.772-0.102 1.112-0.293s0.625-0.465 0.829-0.797c0.204-0.332 0.319-0.711 0.336-1.1s-0.067-0.776-0.243-1.124l-12.571-25.143z"></path>
</symbol>
<symbol id="icon-required" viewBox="0 0 98 32">
<path fill="#fe6060" style="fill: var(--color1, #fe6060)" d="M0 14.222c0-7.855 6.368-14.222 14.222-14.222h69.333c7.855 0 14.222 6.368 14.222 14.222s-6.367 14.222-14.222 14.222h-28c-2.603-0.028-4.063 1.213-6.667 3.556-2.603-2.342-4.063-3.584-6.667-3.556h-28c-7.855 0-14.222-6.368-14.222-14.222z"></path>
<path fill="#faedeb" style="fill: var(--color2, #faedeb)" d="M12.402 12.073l-1.762 5.112h-1.065l2.22-5.898h0.681l-0.073 0.786zM13.877 17.185l-1.766-5.112-0.077-0.786h0.685l2.228 5.898h-1.069zM13.792 14.998v0.806h-3.208v-0.806h3.208zM16.554 10.963v6.222h-0.98v-6.222h0.98zM18.669 10.963v6.222h-0.98v-6.222h0.98zM23.060 17.185h-0.98v-4.667c0-0.354 0.070-0.652 0.211-0.895 0.143-0.243 0.347-0.428 0.612-0.555 0.267-0.127 0.585-0.19 0.952-0.19 0.216 0 0.424 0.023 0.624 0.069 0.203 0.046 0.412 0.104 0.628 0.174l-0.15 0.794c-0.138-0.046-0.29-0.089-0.458-0.13-0.167-0.043-0.361-0.065-0.579-0.065-0.294 0-0.512 0.068-0.652 0.203-0.138 0.132-0.207 0.331-0.207 0.595v4.667zM23.939 12.802v0.713h-2.532v-0.713h2.532zM25.568 12.802v4.383h-0.976v-4.383h0.976zM28.59 17.266c-0.324 0-0.617-0.053-0.879-0.158-0.259-0.108-0.481-0.258-0.664-0.45-0.181-0.192-0.32-0.417-0.417-0.677s-0.146-0.539-0.146-0.839v-0.162c0-0.343 0.050-0.653 0.15-0.932s0.239-0.516 0.417-0.713c0.178-0.2 0.389-0.352 0.632-0.458s0.506-0.158 0.79-0.158c0.313 0 0.587 0.053 0.822 0.158s0.429 0.254 0.583 0.446c0.157 0.189 0.273 0.415 0.348 0.677 0.078 0.262 0.117 0.551 0.117 0.867v0.417h-3.387v-0.701h2.422v-0.077c-0.005-0.176-0.040-0.34-0.105-0.494-0.062-0.154-0.158-0.278-0.288-0.373s-0.302-0.142-0.519-0.142c-0.162 0-0.306 0.035-0.433 0.105-0.124 0.068-0.228 0.166-0.312 0.296s-0.148 0.286-0.194 0.47c-0.043 0.181-0.065 0.385-0.065 0.612v0.162c0 0.192 0.026 0.37 0.077 0.535 0.054 0.162 0.132 0.304 0.235 0.425s0.227 0.217 0.373 0.288c0.146 0.067 0.312 0.101 0.498 0.101 0.235 0 0.444-0.047 0.628-0.142s0.343-0.228 0.478-0.401l0.515 0.498c-0.095 0.138-0.217 0.27-0.369 0.397-0.151 0.124-0.336 0.225-0.555 0.304-0.216 0.078-0.467 0.117-0.753 0.117zM32.15 10.963v6.222h-0.98v-6.222h0.98zM35.894 16.278v-5.315h0.98v6.222h-0.887l-0.093-0.907zM33.042 15.042v-0.085c0-0.332 0.039-0.635 0.117-0.907 0.078-0.275 0.192-0.512 0.34-0.709 0.148-0.2 0.329-0.352 0.543-0.458 0.213-0.108 0.454-0.162 0.721-0.162 0.265 0 0.497 0.051 0.697 0.154s0.37 0.25 0.51 0.442c0.14 0.189 0.252 0.416 0.336 0.681 0.084 0.262 0.143 0.554 0.178 0.875v0.271c-0.035 0.313-0.095 0.6-0.178 0.859s-0.196 0.483-0.336 0.672c-0.14 0.189-0.312 0.335-0.514 0.438-0.2 0.103-0.433 0.154-0.701 0.154-0.265 0-0.504-0.055-0.717-0.166-0.211-0.111-0.39-0.266-0.539-0.466s-0.262-0.435-0.34-0.705c-0.078-0.273-0.117-0.569-0.117-0.887zM34.018 14.957v0.085c0 0.2 0.018 0.386 0.053 0.559 0.038 0.173 0.096 0.325 0.174 0.458 0.078 0.13 0.18 0.232 0.304 0.308 0.127 0.073 0.278 0.109 0.454 0.109 0.221 0 0.404-0.049 0.547-0.146s0.255-0.228 0.336-0.393c0.084-0.167 0.14-0.354 0.17-0.559v-0.733c-0.016-0.159-0.050-0.308-0.101-0.446-0.049-0.138-0.115-0.258-0.199-0.361-0.084-0.105-0.188-0.186-0.312-0.243-0.122-0.059-0.266-0.089-0.433-0.089-0.178 0-0.329 0.038-0.454 0.113s-0.227 0.18-0.308 0.312c-0.078 0.132-0.136 0.286-0.174 0.462s-0.057 0.363-0.057 0.563zM40.354 15.998c0-0.097-0.024-0.185-0.073-0.263-0.049-0.081-0.142-0.154-0.279-0.219-0.135-0.065-0.335-0.124-0.6-0.178-0.232-0.051-0.446-0.112-0.64-0.182-0.192-0.073-0.356-0.161-0.494-0.263s-0.244-0.224-0.32-0.365-0.113-0.302-0.113-0.486c0-0.178 0.039-0.347 0.117-0.506s0.19-0.3 0.336-0.421c0.146-0.122 0.323-0.217 0.531-0.288 0.211-0.070 0.446-0.105 0.705-0.105 0.367 0 0.682 0.062 0.944 0.186 0.265 0.122 0.467 0.288 0.608 0.498 0.14 0.208 0.211 0.443 0.211 0.705h-0.976c0-0.116-0.030-0.224-0.089-0.324-0.057-0.103-0.143-0.185-0.259-0.247-0.116-0.065-0.262-0.097-0.438-0.097-0.167 0-0.306 0.027-0.417 0.081-0.108 0.051-0.189 0.119-0.243 0.203-0.051 0.084-0.077 0.176-0.077 0.275 0 0.073 0.014 0.139 0.040 0.198 0.030 0.057 0.078 0.109 0.146 0.158 0.068 0.046 0.159 0.089 0.276 0.13 0.119 0.040 0.267 0.080 0.446 0.117 0.335 0.070 0.623 0.161 0.863 0.271 0.243 0.108 0.429 0.248 0.559 0.421 0.13 0.17 0.194 0.386 0.194 0.648 0 0.194-0.042 0.373-0.126 0.535-0.081 0.159-0.2 0.298-0.356 0.417-0.157 0.116-0.344 0.207-0.563 0.271-0.216 0.065-0.459 0.097-0.729 0.097-0.397 0-0.733-0.070-1.009-0.211-0.276-0.143-0.485-0.325-0.628-0.547-0.14-0.224-0.211-0.456-0.211-0.697h0.944c0.011 0.181 0.061 0.325 0.15 0.433 0.092 0.105 0.205 0.182 0.34 0.231 0.138 0.046 0.279 0.069 0.425 0.069 0.176 0 0.323-0.023 0.442-0.069 0.119-0.049 0.209-0.113 0.271-0.194 0.062-0.084 0.093-0.178 0.093-0.284zM46.701 16.306v-2.090c0-0.157-0.028-0.292-0.085-0.405s-0.143-0.201-0.259-0.263c-0.113-0.062-0.257-0.093-0.429-0.093-0.159 0-0.297 0.027-0.413 0.081s-0.207 0.127-0.271 0.219c-0.065 0.092-0.097 0.196-0.097 0.312h-0.972c0-0.173 0.042-0.34 0.126-0.502s0.205-0.307 0.365-0.433 0.35-0.227 0.571-0.3c0.221-0.073 0.47-0.109 0.745-0.109 0.329 0 0.621 0.055 0.875 0.166 0.257 0.111 0.458 0.278 0.604 0.502 0.149 0.221 0.223 0.5 0.223 0.835v1.949c0 0.2 0.014 0.379 0.040 0.539 0.030 0.157 0.072 0.293 0.126 0.409v0.065h-1.001c-0.046-0.105-0.082-0.239-0.109-0.401-0.024-0.165-0.036-0.324-0.036-0.478zM46.843 14.52l0.008 0.604h-0.701c-0.181 0-0.34 0.018-0.478 0.053-0.138 0.032-0.252 0.081-0.344 0.146s-0.161 0.143-0.207 0.235c-0.046 0.092-0.069 0.196-0.069 0.312s0.027 0.223 0.081 0.32c0.054 0.095 0.132 0.169 0.235 0.223 0.105 0.054 0.232 0.081 0.381 0.081 0.2 0 0.374-0.041 0.523-0.122 0.151-0.084 0.27-0.185 0.356-0.304 0.086-0.122 0.132-0.236 0.138-0.344l0.316 0.433c-0.032 0.111-0.088 0.23-0.166 0.356s-0.181 0.248-0.308 0.365c-0.124 0.113-0.274 0.207-0.45 0.279-0.173 0.073-0.373 0.109-0.6 0.109-0.286 0-0.541-0.057-0.766-0.17-0.224-0.116-0.4-0.271-0.527-0.466-0.127-0.197-0.19-0.42-0.19-0.668 0-0.232 0.043-0.437 0.13-0.616 0.089-0.181 0.219-0.332 0.389-0.454 0.173-0.122 0.383-0.213 0.632-0.275 0.248-0.065 0.532-0.097 0.851-0.097h0.766zM49.683 13.637v3.549h-0.976v-4.383h0.932l0.045 0.835zM51.024 12.774l-0.008 0.907c-0.059-0.011-0.124-0.019-0.194-0.024-0.068-0.005-0.135-0.008-0.203-0.008-0.167 0-0.315 0.024-0.442 0.073-0.127 0.046-0.234 0.113-0.32 0.203-0.084 0.086-0.149 0.192-0.194 0.316s-0.073 0.263-0.081 0.417l-0.223 0.016c0-0.275 0.027-0.531 0.081-0.766s0.135-0.442 0.243-0.62c0.111-0.178 0.248-0.317 0.413-0.417 0.167-0.1 0.361-0.15 0.579-0.15 0.059 0 0.123 0.005 0.19 0.016 0.070 0.011 0.123 0.023 0.158 0.037zM53.487 17.266c-0.324 0-0.617-0.053-0.879-0.158-0.259-0.108-0.481-0.258-0.664-0.45-0.181-0.192-0.32-0.417-0.417-0.677s-0.146-0.539-0.146-0.839v-0.162c0-0.343 0.050-0.653 0.15-0.932s0.239-0.516 0.417-0.713c0.178-0.2 0.389-0.352 0.632-0.458s0.506-0.158 0.79-0.158c0.313 0 0.587 0.053 0.822 0.158s0.429 0.254 0.583 0.446c0.157 0.189 0.273 0.415 0.348 0.677 0.078 0.262 0.117 0.551 0.117 0.867v0.417h-3.387v-0.701h2.422v-0.077c-0.005-0.176-0.041-0.34-0.105-0.494-0.062-0.154-0.158-0.278-0.288-0.373s-0.302-0.142-0.519-0.142c-0.162 0-0.306 0.035-0.433 0.105-0.124 0.068-0.228 0.166-0.312 0.296s-0.149 0.286-0.194 0.47c-0.043 0.181-0.065 0.385-0.065 0.612v0.162c0 0.192 0.026 0.37 0.077 0.535 0.054 0.162 0.132 0.304 0.235 0.425s0.227 0.217 0.373 0.288c0.146 0.067 0.312 0.101 0.498 0.101 0.235 0 0.444-0.047 0.628-0.142s0.343-0.228 0.478-0.401l0.514 0.498c-0.095 0.138-0.217 0.27-0.369 0.397-0.151 0.124-0.336 0.225-0.555 0.304-0.216 0.078-0.467 0.117-0.753 0.117zM59.049 13.637v3.549h-0.976v-4.383h0.932l0.045 0.835zM60.389 12.774l-0.008 0.907c-0.060-0.011-0.124-0.019-0.195-0.024-0.068-0.005-0.135-0.008-0.202-0.008-0.168 0-0.315 0.024-0.441 0.073-0.127 0.046-0.234 0.113-0.32 0.203-0.084 0.086-0.149 0.192-0.194 0.316s-0.073 0.263-0.081 0.417l-0.223 0.016c0-0.275 0.027-0.531 0.081-0.766s0.135-0.442 0.243-0.62c0.111-0.178 0.249-0.317 0.413-0.417 0.167-0.1 0.36-0.15 0.579-0.15 0.060 0 0.123 0.005 0.191 0.016 0.070 0.011 0.123 0.023 0.158 0.037zM62.852 17.266c-0.324 0-0.617-0.053-0.879-0.158-0.259-0.108-0.481-0.258-0.664-0.45-0.181-0.192-0.32-0.417-0.417-0.677s-0.146-0.539-0.146-0.839v-0.162c0-0.343 0.050-0.653 0.15-0.932s0.239-0.516 0.417-0.713c0.178-0.2 0.389-0.352 0.632-0.458s0.507-0.158 0.79-0.158c0.313 0 0.587 0.053 0.823 0.158s0.43 0.254 0.583 0.446c0.157 0.189 0.273 0.415 0.348 0.677 0.078 0.262 0.117 0.551 0.117 0.867v0.417h-3.386v-0.701h2.422v-0.077c-0.005-0.176-0.040-0.34-0.105-0.494-0.062-0.154-0.158-0.278-0.288-0.373s-0.302-0.142-0.519-0.142c-0.162 0-0.306 0.035-0.433 0.105-0.124 0.068-0.228 0.166-0.312 0.296s-0.149 0.286-0.195 0.47c-0.043 0.181-0.065 0.385-0.065 0.612v0.162c0 0.192 0.025 0.37 0.077 0.535 0.054 0.162 0.132 0.304 0.235 0.425s0.227 0.217 0.373 0.288c0.146 0.067 0.312 0.101 0.498 0.101 0.235 0 0.444-0.047 0.628-0.142s0.343-0.228 0.478-0.401l0.515 0.498c-0.095 0.138-0.217 0.27-0.369 0.397-0.151 0.124-0.336 0.225-0.555 0.304-0.216 0.078-0.467 0.117-0.754 0.117zM68.037 18.87v-5.197l0.114-0.871h0.871v6.068h-0.985zM65.19 15.038v-0.085c0-0.332 0.038-0.635 0.113-0.907 0.076-0.275 0.188-0.512 0.337-0.709s0.329-0.348 0.543-0.454c0.213-0.108 0.459-0.162 0.737-0.162 0.27 0 0.505 0.051 0.705 0.154 0.203 0.103 0.373 0.25 0.511 0.442 0.14 0.189 0.252 0.415 0.336 0.677s0.145 0.554 0.183 0.875v0.271c-0.036 0.313-0.095 0.6-0.178 0.859s-0.196 0.483-0.337 0.672-0.312 0.336-0.514 0.442c-0.203 0.103-0.44 0.154-0.713 0.154s-0.516-0.055-0.729-0.166c-0.213-0.111-0.395-0.266-0.543-0.466-0.146-0.203-0.258-0.439-0.337-0.709-0.075-0.273-0.113-0.568-0.113-0.887zM66.166 14.953v0.085c0 0.2 0.018 0.387 0.053 0.563 0.038 0.173 0.097 0.327 0.178 0.462 0.081 0.132 0.184 0.236 0.308 0.312s0.274 0.113 0.45 0.113c0.23 0 0.417-0.050 0.563-0.15 0.149-0.1 0.262-0.234 0.341-0.401 0.081-0.17 0.137-0.358 0.17-0.563v-0.733c-0.019-0.159-0.053-0.308-0.101-0.446-0.049-0.14-0.116-0.262-0.203-0.365-0.084-0.105-0.189-0.186-0.316-0.243-0.124-0.059-0.273-0.089-0.446-0.089-0.175 0-0.327 0.038-0.454 0.113s-0.231 0.181-0.312 0.316c-0.078 0.132-0.136 0.286-0.174 0.462s-0.057 0.363-0.057 0.563zM72.704 16.152v-3.35h0.981v4.383h-0.924l-0.057-1.033zM72.842 15.241l0.328-0.008c0 0.294-0.033 0.566-0.097 0.814-0.065 0.246-0.165 0.46-0.3 0.644-0.135 0.181-0.308 0.323-0.519 0.425-0.211 0.1-0.463 0.15-0.758 0.15-0.213 0-0.409-0.031-0.587-0.093s-0.332-0.158-0.462-0.288c-0.127-0.13-0.226-0.298-0.296-0.506s-0.105-0.456-0.105-0.745v-2.832h0.977v2.84c0 0.159 0.018 0.293 0.056 0.401 0.038 0.105 0.089 0.19 0.154 0.255s0.14 0.111 0.227 0.138c0.087 0.027 0.178 0.040 0.276 0.040 0.278 0 0.497-0.054 0.656-0.162 0.162-0.111 0.277-0.259 0.344-0.446 0.071-0.186 0.105-0.396 0.105-0.628zM75.73 12.802v4.383h-0.98v-4.383h0.98zM74.685 11.652c0-0.149 0.049-0.271 0.146-0.369 0.1-0.1 0.238-0.15 0.414-0.15 0.172 0 0.309 0.050 0.409 0.15 0.1 0.097 0.15 0.22 0.15 0.369 0 0.146-0.050 0.267-0.15 0.365s-0.236 0.146-0.409 0.146c-0.176 0-0.313-0.049-0.414-0.146-0.097-0.097-0.146-0.219-0.146-0.365zM77.78 13.637v3.549h-0.977v-4.383h0.932l0.044 0.835zM79.121 12.774l-0.008 0.907c-0.059-0.011-0.124-0.019-0.194-0.024-0.068-0.005-0.135-0.008-0.203-0.008-0.168 0-0.315 0.024-0.441 0.073-0.127 0.046-0.233 0.113-0.32 0.203-0.084 0.086-0.149 0.192-0.194 0.316s-0.073 0.263-0.081 0.417l-0.223 0.016c0-0.275 0.027-0.531 0.081-0.766s0.135-0.442 0.243-0.62c0.111-0.178 0.248-0.317 0.413-0.417 0.168-0.1 0.361-0.15 0.58-0.15 0.059 0 0.123 0.005 0.19 0.016 0.070 0.011 0.123 0.023 0.158 0.037zM81.584 17.266c-0.324 0-0.617-0.053-0.879-0.158-0.259-0.108-0.481-0.258-0.664-0.45-0.181-0.192-0.32-0.417-0.417-0.677s-0.146-0.539-0.146-0.839v-0.162c0-0.343 0.050-0.653 0.15-0.932s0.239-0.516 0.417-0.713c0.178-0.2 0.389-0.352 0.632-0.458s0.506-0.158 0.79-0.158c0.313 0 0.587 0.053 0.822 0.158s0.43 0.254 0.584 0.446c0.156 0.189 0.273 0.415 0.348 0.677 0.078 0.262 0.117 0.551 0.117 0.867v0.417h-3.387v-0.701h2.423v-0.077c-0.005-0.176-0.040-0.34-0.105-0.494-0.062-0.154-0.158-0.278-0.287-0.373s-0.303-0.142-0.519-0.142c-0.162 0-0.306 0.035-0.434 0.105-0.124 0.068-0.228 0.166-0.312 0.296s-0.149 0.286-0.194 0.47c-0.043 0.181-0.065 0.385-0.065 0.612v0.162c0 0.192 0.026 0.37 0.077 0.535 0.054 0.162 0.133 0.304 0.235 0.425s0.227 0.217 0.373 0.288c0.146 0.067 0.312 0.101 0.498 0.101 0.235 0 0.444-0.047 0.628-0.142s0.343-0.228 0.478-0.401l0.514 0.498c-0.095 0.138-0.217 0.27-0.369 0.397-0.151 0.124-0.337 0.225-0.555 0.304-0.216 0.078-0.467 0.117-0.753 0.117zM86.773 16.278v-5.315h0.98v6.222h-0.887l-0.093-0.907zM83.921 15.042v-0.085c0-0.332 0.039-0.635 0.117-0.907 0.079-0.275 0.192-0.512 0.341-0.709 0.148-0.2 0.329-0.352 0.543-0.458 0.213-0.108 0.453-0.162 0.721-0.162 0.265 0 0.497 0.051 0.697 0.154s0.37 0.25 0.511 0.442c0.14 0.189 0.252 0.416 0.336 0.681 0.084 0.262 0.143 0.554 0.178 0.875v0.271c-0.036 0.313-0.095 0.6-0.178 0.859s-0.196 0.483-0.336 0.672c-0.14 0.189-0.312 0.335-0.515 0.438-0.2 0.103-0.433 0.154-0.7 0.154-0.265 0-0.504-0.055-0.717-0.166-0.211-0.111-0.391-0.266-0.539-0.466s-0.262-0.435-0.341-0.705c-0.078-0.273-0.117-0.569-0.117-0.887zM84.898 14.957v0.085c0 0.2 0.017 0.386 0.053 0.559 0.037 0.173 0.095 0.325 0.174 0.458 0.079 0.13 0.18 0.232 0.304 0.308 0.127 0.073 0.279 0.109 0.454 0.109 0.221 0 0.404-0.049 0.547-0.146s0.255-0.228 0.336-0.393c0.084-0.167 0.14-0.354 0.17-0.559v-0.733c-0.016-0.159-0.050-0.308-0.101-0.446-0.049-0.138-0.114-0.258-0.199-0.361-0.084-0.105-0.187-0.186-0.312-0.243-0.121-0.059-0.266-0.089-0.434-0.089-0.178 0-0.329 0.038-0.453 0.113s-0.227 0.18-0.308 0.312c-0.078 0.132-0.136 0.286-0.174 0.462s-0.056 0.363-0.056 0.563z"></path>
</symbol>
</defs>
</svg>
