<svg aria-hidden="true" style="position: absolute; width: 0; height: 0; overflow: hidden;" version="1.1" xmlns="http://www.w3.org/2000/svg" xmlns:xlink="http://www.w3.org/1999/xlink">
<defs>
<symbol id="default-left" viewBox="0 0 37 32">
<path fill="#fff" style="fill: var(--color1, #fff)" d="M2.667 21.333v-16c0-2.946 2.388-5.333 5.333-5.333h21.333c2.946 0 5.333 2.388 5.333 5.333v16c0 2.946-2.388 5.333-5.333 5.333h-21.333c-2.946 0-5.333-2.388-5.333-5.333z"></path>
<path fill="#2c2c2c" style="fill: var(--color2, #2c2c2c)" d="M11.633 13.937l9.289 8.85c0.149 0.142 0.352 0.23 0.575 0.23s0.426-0.088 0.575-0.23l0.010-0.010c0.147-0.14 0.238-0.337 0.238-0.556s-0.091-0.416-0.238-0.555l-0-0-8.747-8.333 8.747-8.33c0.147-0.14 0.239-0.337 0.239-0.556s-0.092-0.416-0.238-0.556l-0.010-0.010c-0.149-0.142-0.352-0.23-0.575-0.23s-0.426 0.088-0.575 0.23l0-0-9.289 8.85c-0.159 0.152-0.258 0.366-0.258 0.603s0.099 0.451 0.258 0.603l0 0z"></path>
</symbol>
<symbol id="default-right" viewBox="0 0 37 32">
<path fill="#fff" style="fill: var(--color1, #fff)" d="M34.667 5.333v16c0 2.946-2.388 5.333-5.333 5.333h-21.333c-2.946 0-5.333-2.388-5.333-5.333v-16c0-2.946 2.388-5.333 5.333-5.333h21.333c2.946 0 5.333 2.388 5.333 5.333z"></path>
<path fill="#2c2c2c" style="fill: var(--color2, #2c2c2c)" d="M25.7 12.73l-9.289-8.85c-0.149-0.142-0.352-0.23-0.575-0.23s-0.426 0.088-0.575 0.23l-0.010 0.010c-0.147 0.14-0.238 0.337-0.238 0.556s0.091 0.416 0.238 0.555l0 0 8.747 8.333-8.747 8.331c-0.147 0.14-0.238 0.337-0.238 0.556s0.091 0.416 0.238 0.555l0.010 0.010c0.149 0.142 0.352 0.23 0.575 0.23s0.426-0.088 0.575-0.23l-0 0 9.289-8.85c0.159-0.152 0.258-0.366 0.258-0.603s-0.099-0.451-0.258-0.603l-0-0z"></path>
</symbol>
<symbol id="hover-left" viewBox="0 0 37 32">
<path fill="#fff" style="fill: var(--color1, #fff)" d="M2.667 21.333v-16c0-2.946 2.388-5.333 5.333-5.333h21.333c2.946 0 5.333 2.388 5.333 5.333v16c0 2.946-2.388 5.333-5.333 5.333h-21.333c-2.946 0-5.333-2.388-5.333-5.333z"></path>
<path fill="#7eb101" style="fill: var(--color3, #7eb101)" d="M11.633 13.937l9.289 8.85c0.149 0.142 0.352 0.23 0.575 0.23s0.426-0.088 0.575-0.23l0.010-0.010c0.147-0.14 0.238-0.337 0.238-0.556s-0.091-0.416-0.238-0.555l-0-0-8.747-8.333 8.747-8.33c0.147-0.14 0.239-0.337 0.239-0.556s-0.092-0.416-0.238-0.556l-0.010-0.010c-0.149-0.142-0.352-0.23-0.575-0.23s-0.426 0.088-0.575 0.23l0-0-9.289 8.85c-0.159 0.152-0.258 0.366-0.258 0.603s0.099 0.451 0.258 0.603l0 0z"></path>
</symbol>
<symbol id="hover-right" viewBox="0 0 37 32">
<path fill="#fff" style="fill: var(--color1, #fff)" d="M34.667 5.333v16c0 2.946-2.388 5.333-5.333 5.333h-21.333c-2.946 0-5.333-2.388-5.333-5.333v-16c0-2.946 2.388-5.333 5.333-5.333h21.333c2.946 0 5.333 2.388 5.333 5.333z"></path>
<path fill="#7eb101" style="fill: var(--color3, #7eb101)" d="M25.7 12.73l-9.289-8.85c-0.149-0.142-0.352-0.23-0.575-0.23s-0.426 0.088-0.575 0.23l-0.010 0.010c-0.147 0.14-0.238 0.337-0.238 0.556s0.091 0.416 0.238 0.555l0 0 8.747 8.333-8.747 8.331c-0.147 0.14-0.238 0.337-0.238 0.556s0.091 0.416 0.238 0.555l0.010 0.010c0.149 0.142 0.352 0.23 0.575 0.23s0.426-0.088 0.575-0.23l-0 0 9.289-8.85c0.159-0.152 0.258-0.366 0.258-0.603s-0.099-0.451-0.258-0.603l-0-0z"></path>
</symbol>
<symbol id="click-left" viewBox="0 0 37 32">
<path fill="#fff" style="fill: var(--color1, #fff)" d="M2.667 21.333v-16c0-2.946 2.388-5.333 5.333-5.333h21.333c2.946 0 5.333 2.388 5.333 5.333v16c0 2.946-2.388 5.333-5.333 5.333h-21.333c-2.946 0-5.333-2.388-5.333-5.333z"></path>
<path fill="#2c2c2c" style="fill: var(--color2, #2c2c2c)" d="M11.633 13.937l9.289 8.85c0.149 0.142 0.352 0.23 0.575 0.23s0.426-0.088 0.575-0.23l0.010-0.010c0.147-0.14 0.238-0.337 0.238-0.556s-0.091-0.416-0.238-0.555l-0-0-8.747-8.333 8.747-8.33c0.147-0.14 0.239-0.337 0.239-0.556s-0.092-0.416-0.238-0.556l-0.010-0.010c-0.149-0.142-0.352-0.23-0.575-0.23s-0.426 0.088-0.575 0.23l0-0-9.289 8.85c-0.159 0.152-0.258 0.366-0.258 0.603s0.099 0.451 0.258 0.603l0 0z"></path>
</symbol>
<symbol id="click-right" viewBox="0 0 37 32">
<path fill="#fff" style="fill: var(--color1, #fff)" d="M34.667 5.333v16c0 2.946-2.388 5.333-5.333 5.333h-21.333c-2.946 0-5.333-2.388-5.333-5.333v-16c0-2.946 2.388-5.333 5.333-5.333h21.333c2.946 0 5.333 2.388 5.333 5.333z"></path>
<path fill="#2c2c2c" style="fill: var(--color2, #2c2c2c)" d="M25.7 12.73l-9.289-8.85c-0.149-0.142-0.352-0.23-0.575-0.23s-0.426 0.088-0.575 0.23l-0.010 0.010c-0.147 0.14-0.238 0.337-0.238 0.556s0.091 0.416 0.238 0.555l0 0 8.747 8.333-8.747 8.331c-0.147 0.14-0.238 0.337-0.238 0.556s0.091 0.416 0.238 0.555l0.010 0.010c0.149 0.142 0.352 0.23 0.575 0.23s0.426-0.088 0.575-0.23l-0 0 9.289-8.85c0.159-0.152 0.258-0.366 0.258-0.603s-0.099-0.451-0.258-0.603l-0-0z"></path>
</symbol>
<symbol id="Frame-17-2-2" viewBox="0 0 30 32">
<path d="M16.219 14.826l4.928-4.923c0.156-0.177 0.252-0.412 0.252-0.668 0-0.559-0.453-1.013-1.013-1.013-0.257 0-0.492 0.096-0.67 0.253l0.001-0.001-4.927 4.874-4.959-4.955c-0.175-0.146-0.402-0.235-0.649-0.235-0.56 0-1.014 0.454-1.014 1.014 0 0.247 0.089 0.474 0.236 0.65l-0.001-0.002 4.948 5.006-4.847 4.782c-0.211 0.187-0.344 0.458-0.344 0.76 0 0.559 0.454 1.013 1.013 1.013 0.303 0 0.574-0.133 0.76-0.343l0.001-0.001 4.836-4.832 4.806 4.801c0.175 0.146 0.402 0.235 0.649 0.235 0.56 0 1.014-0.454 1.014-1.014 0-0.247-0.089-0.474-0.236-0.65l0.001 0.002-4.785-4.751z"></path>
</symbol>
<symbol id="Frame-30-2" viewBox="0 0 32 32">
<path fill="#fff" style="fill: var(--color1, #fff)" d="M5.333 0h21.333v21.333h-21.333z"></path>
<path fill="#ffe550" style="fill: var(--color4, #ffe550)" d="M14.371 4.304c0.675-1.321 2.56-1.321 3.235 0l0.853 1.673c0.265 0.517 0.76 0.877 1.333 0.968l1.851 0.293c1.465 0.235 2.048 2.033 1 3.084l-1.321 1.323c-0.411 0.412-0.6 0.995-0.511 1.571l0.293 1.848c0.231 1.467-1.296 2.579-2.617 1.907l-1.676-0.853c-0.239-0.124-0.522-0.197-0.823-0.197s-0.583 0.073-0.833 0.202l0.010-0.005-1.675 0.853c-1.321 0.672-2.848-0.44-2.616-1.907l0.291-1.848c0.014-0.086 0.022-0.184 0.022-0.285 0-0.502-0.203-0.957-0.532-1.286l0 0-1.32-1.323c-1.049-1.051-0.467-2.849 1-3.083l1.849-0.293c0.573-0.093 1.068-0.453 1.333-0.969l0.853-1.673z"></path>
<path fill="#bbf330" style="fill: var(--color5, #bbf330)" d="M16 21.333v0c-5.891 0-10.667-4.776-10.667-10.667s4.776-10.667 10.667-10.667v0c5.891 0 10.667 4.776 10.667 10.667s-4.776 10.667-10.667 10.667zM16 20.196c0.047 0.001 0.103 0.001 0.159 0.001 5.264 0 9.531-4.267 9.531-9.531s-4.267-9.531-9.531-9.531c-0.056 0-0.112 0-0.168 0.001l0.008-0c-0.047-0.001-0.103-0.001-0.159-0.001-5.264 0-9.531 4.267-9.531 9.531s4.267 9.531 9.531 9.531c0.056 0 0.112-0 0.168-0.001l-0.008 0z"></path>
</symbol>
<symbol id="mobile-menu" viewBox="0 0 32 32">
<path fill="#ffe550" style="fill: var(--color4, #ffe550)" d="M2.666 8c0-0.737 0.597-1.334 1.334-1.334v0h24c0.737 0 1.334 0.597 1.334 1.334s-0.597 1.334-1.334 1.334h-24c-0.737 0-1.334-0.597-1.334-1.334v0zM2.666 16.042c0.001-0.736 0.598-1.333 1.334-1.333 0 0 0 0 0 0h24c0.012-0 0.025-0.001 0.039-0.001 0.737 0 1.334 0.597 1.334 1.334s-0.597 1.334-1.334 1.334c-0.014 0-0.027-0-0.041-0.001l0.002 0h-24c-0.737 0-1.334-0.597-1.334-1.334v0zM4 22.752c-0.72 0.022-1.295 0.61-1.295 1.333s0.575 1.311 1.293 1.333l0.002 0h24c0.012 0 0.025 0.001 0.039 0.001 0.737 0 1.334-0.597 1.334-1.334s-0.597-1.334-1.334-1.334c-0.014 0-0.027 0-0.041 0.001l0.002-0h-24z"></path>
</symbol>
<symbol id="mobile-menu-click" viewBox="0 0 32 32">
<path fill="#7eb101" style="fill: var(--color3, #7eb101)" d="M2.666 8c0-0.737 0.597-1.334 1.334-1.334v0h24c0.737 0 1.334 0.597 1.334 1.334s-0.597 1.334-1.334 1.334h-24c-0.737 0-1.334-0.597-1.334-1.334v0zM2.666 16.042c0.001-0.736 0.598-1.333 1.334-1.333 0 0 0 0 0 0h24c0.012-0 0.025-0.001 0.039-0.001 0.737 0 1.334 0.597 1.334 1.334s-0.597 1.334-1.334 1.334c-0.014 0-0.027-0-0.041-0.001l0.002 0h-24c-0.737 0-1.334-0.597-1.334-1.334v0zM4 22.752c-0.72 0.022-1.295 0.61-1.295 1.333s0.575 1.311 1.293 1.333l0.002 0h24c0.012 0 0.025 0.001 0.039 0.001 0.737 0 1.334-0.597 1.334-1.334s-0.597-1.334-1.334-1.334c-0.014 0-0.027 0-0.041 0.001l0.002-0h-24z"></path>
</symbol>
<symbol id="rocket-launch" viewBox="0 0 32 32">
<path fill="#7eb101" style="fill: var(--color3, #7eb101)" d="M7.233 13.633l3.534 1.5c0.4-0.8 0.827-1.588 1.283-2.366s0.939-1.522 1.45-2.234l-2.633-0.533-3.634 3.633zM12.367 16.333l4.433 4.434c1.383-0.632 2.553-1.289 3.663-2.027l-0.096 0.060c1.11-0.733 2.010-1.444 2.7-2.133 1.8-1.8 3.122-3.645 3.966-5.534s1.3-4.022 1.367-6.4c-2.378 0.067-4.511 0.523-6.4 1.367s-3.733 2.167-5.533 3.967c-0.69 0.689-1.4 1.589-2.134 2.7-0.678 1.014-1.334 2.183-1.899 3.404l-0.067 0.162zM20 13.133c-0.444-0.444-0.667-0.994-0.667-1.65 0-0.655 0.223-1.205 0.667-1.65s0.994-0.666 1.65-0.666 1.206 0.222 1.65 0.666c0.444 0.445 0.667 0.995 0.667 1.65s-0.223 1.206-0.667 1.65c-0.444 0.445-0.994 0.667-1.65 0.667s-1.206-0.222-1.65-0.667zM19.5 25.9l3.633-3.633-0.533-2.634c-0.711 0.512-1.456 0.995-2.233 1.45-0.778 0.456-1.567 0.884-2.367 1.284l1.5 3.533zM30.367 2.767c0.2 3.022-0.178 5.777-1.134 8.266-0.955 2.49-2.533 4.834-4.733 7.034l-0.067 0.066-0.066 0.067 0.733 3.667c0.067 0.333 0.050 0.655-0.050 0.966-0.1 0.312-0.272 0.59-0.517 0.834l-5.7 5.733-2.833-6.6-5.667-5.667-6.6-2.833 5.734-5.7c0.244-0.244 0.522-0.417 0.833-0.517s0.633-0.116 0.967-0.050l3.666 0.734c0.019-0.020 0.041-0.036 0.066-0.049l0.001-0.001c0.026-0.014 0.048-0.030 0.067-0.050l0-0c2.2-2.2 4.544-3.784 7.033-4.75s5.244-1.35 8.267-1.15zM5.967 21.167c0.777-0.778 1.727-1.173 2.85-1.184 1.122-0.010 2.072 0.373 2.85 1.15 0.777 0.778 1.16 1.728 1.15 2.85-0.011 1.123-0.406 2.073-1.184 2.85-0.577 0.578-1.472 1.056-2.683 1.434s-3.028 0.733-5.45 1.066c0.333-2.422 0.683-4.244 1.050-5.466s0.839-2.123 1.417-2.7zM7.367 22.6c-0.311 0.333-0.59 0.856-0.834 1.567s-0.455 1.622-0.633 2.733c1.111-0.178 2.022-0.389 2.733-0.633 0.711-0.245 1.234-0.523 1.567-0.834 0.422-0.377 0.639-0.85 0.65-1.416 0.001-0.018 0.001-0.040 0.001-0.061 0-0.555-0.223-1.057-0.584-1.423l0 0c-0.366-0.361-0.869-0.584-1.423-0.584-0.021 0-0.043 0-0.064 0.001l0.003-0c-0.565 0.001-1.071 0.252-1.414 0.648l-0.002 0.002z"></path>
</symbol>
<symbol id="touch-app" viewBox="0 0 32 32">
<path fill="#7eb101" style="fill: var(--color3, #7eb101)" d="M15.5 1.333c2.023 0 3.75 0.706 5.184 2.117 1.433 1.411 2.15 3.128 2.15 5.15 0 1.156-0.25 2.244-0.75 3.267-0.515 1.040-1.229 1.91-2.1 2.588l-0.017 0.012h-1.133v-1.667c0.627-0.495 1.128-1.12 1.47-1.836l0.013-0.031c0.326-0.677 0.517-1.471 0.517-2.31 0-0.008-0-0.016-0-0.024v0.001c0-1.467-0.523-2.711-1.567-3.733s-2.3-1.534-3.767-1.534c-1.466 0-2.722 0.511-3.766 1.534s-1.567 2.266-1.567 3.733c0 0.822 0.172 1.6 0.517 2.333 0.355 0.747 0.856 1.372 1.472 1.859l0.011 0.008v2.4c-1.227-0.632-2.223-1.564-2.915-2.701l-0.018-0.032c-0.67-1.086-1.067-2.403-1.067-3.812 0-0.019 0-0.039 0-0.058l-0 0.003c0-2.022 0.717-3.739 2.15-5.15s3.161-2.117 5.183-2.117zM14.234 29.333c-0.378 0-0.734-0.072-1.067-0.216-0.337-0.145-0.624-0.342-0.867-0.584l-6.866-6.866 1.866-1.934c0.311-0.31 0.661-0.55 1.050-0.716 0.214-0.095 0.464-0.151 0.727-0.151 0.174 0 0.343 0.024 0.503 0.070l-0.013-0.003 2.6 0.6v-10.866c0-0.934 0.322-1.723 0.967-2.367 0.644-0.644 1.433-0.967 2.366-0.967 0.934 0 1.723 0.323 2.367 0.967s0.967 1.433 0.967 2.367v5.733h0.866c0.111 0 0.211 0.022 0.3 0.067s0.19 0.088 0.3 0.133l4.934 2.4c0.533 0.244 0.927 0.639 1.183 1.183 0.255 0.545 0.328 1.106 0.217 1.684l-1.2 7.266c-0.106 0.647-0.446 1.2-0.929 1.58l-0.005 0.004c-0.462 0.383-1.061 0.616-1.714 0.616-0.007 0-0.013-0-0.020-0h-8.532zM13.967 27.333h9.367l1.433-8.3-6.1-3.033h-1.833v-7.333c0-0.4-0.123-0.723-0.367-0.967s-0.567-0.367-0.967-0.367-0.722 0.123-0.966 0.367c-0.245 0.244-0.367 0.567-0.367 0.967v13.3l-5.133-1.1-0.767 0.766 5.7 5.7zM23.334 27.333v0z"></path>
</symbol>
<symbol id="Vector-2-2" viewBox="0 0 41 32">
<path fill="#ffe550" style="fill: var(--color4, #ffe550)" d="M14.143 6.455c1.010-1.982 3.836-1.982 4.846 0l1.28 2.51c0.395 0.763 1.119 1.309 1.98 1.45l0.016 0.002 2.772 0.442c2.196 0.35 3.070 3.049 1.497 4.625l-1.978 1.983c-0.493 0.494-0.798 1.177-0.798 1.93 0 0.15 0.012 0.298 0.035 0.442l-0.002-0.016 0.437 2.773c0.346 2.2-1.94 3.868-3.92 2.858l-2.511-1.278c-0.358-0.186-0.783-0.296-1.232-0.296s-0.874 0.109-1.247 0.303l0.015-0.007-2.511 1.278c-1.98 1.009-4.267-0.658-3.92-2.858l0.437-2.773c0.021-0.128 0.033-0.275 0.033-0.426 0-0.753-0.305-1.436-0.798-1.93l0 0-1.978-1.983c-1.572-1.576-0.698-4.276 1.497-4.625l2.772-0.441c0.877-0.144 1.601-0.689 1.989-1.438l0.007-0.015 1.28-2.51z"></path>
<path fill="#2c2c2c" style="fill: var(--color2, #2c2c2c)" d="M1.116 20.357l-0.021 0.005c0.002 0.074-0.001 0.374-0.011 0.9-0.003 0.524-0.004 0.868-0.002 1.032 0 0.157-0.004 0.285-0.010 0.384l0.001 0.336c-0 0.104-0.007 0.207-0.021 0.308l0.001-0.012-0.018 0.206c-0.014 0.13-0.042 0.201-0.084 0.211-0.092 0.022-0.235-0.049-0.431-0.212-0.197-0.17-0.31-0.319-0.34-0.447s-0.038-1.060-0.023-2.798c0.021-1.74-0.026-2.884-0.14-3.433-0.011-0.035-0.017-0.075-0.017-0.116 0-0.056 0.011-0.11 0.031-0.158l-0.001 0.003c0.036-0.166 0.219-0.321 0.55-0.467 0.338-0.147 0.843-0.3 1.514-0.459 0.678-0.16 1.216-0.25 1.614-0.27 0.405-0.021 0.623 0.032 0.652 0.16 0.021 0.085-0.025 0.159-0.137 0.223s-0.211 0.117-0.298 0.16c0.121-0.039 0.006 0.008-0.109 0.054l-0.239 0.085c-0.145 0.049-0.279 0.096-0.403 0.14-0.126 0.037-0.288 0.090-0.488 0.16-0.193 0.068-0.372 0.133-0.536 0.194-0.166 0.054-0.39 0.133-0.671 0.237s-0.463 0.17-0.546 0.197c0.012 0.020 0.023 0.050 0.033 0.093 0.079 0.332 0.122 1.13 0.129 2.392 0.443-0.082 0.911-0.204 1.402-0.366 0.498-0.162 0.804-0.257 0.917-0.284 0.269-0.063 0.416-0.039 0.443 0.074 0.052 0.22-0.212 0.476-0.791 0.77-0.572 0.293-1.222 0.525-1.95 0.697zM8.033 18.406c-0.058-0.247-0.153-0.465-0.282-0.66l0.005 0.008c-0.13-0.201-0.281-0.334-0.452-0.398-0.455 0.25-0.786 0.729-0.992 1.435-0.201 0.698-0.236 1.319-0.108 1.865s0.343 0.854 0.644 0.924c0.485-0.219 0.834-0.668 1.046-1.346 0.218-0.687 0.265-1.297 0.139-1.828zM5.269 19.161c0.117-0.611 0.33-1.14 0.642-1.588 0.318-0.457 0.684-0.734 1.102-0.833 0.423-0.1 0.819-0.003 1.187 0.291 0.366 0.287 0.61 0.689 0.732 1.206 0.121 0.51 0.121 1.063 0.001 1.66-0.122 0.602-0.372 1.131-0.72 1.58l0.006-0.009c-0.349 0.449-0.767 0.731-1.254 0.846-0.361 0.086-0.7-0.010-1.019-0.286s-0.538-0.669-0.658-1.179c-0.123-0.517-0.129-1.080-0.019-1.689zM12.833 17.27c-0.058-0.247-0.153-0.465-0.282-0.66l0.005 0.008c-0.129-0.201-0.281-0.334-0.452-0.398-0.455 0.25-0.786 0.728-0.992 1.434-0.201 0.698-0.236 1.32-0.107 1.865 0.129 0.546 0.343 0.854 0.643 0.925 0.486-0.22 0.834-0.668 1.047-1.347 0.218-0.687 0.265-1.296 0.138-1.828zM10.070 18.025c0.117-0.611 0.331-1.14 0.642-1.588 0.318-0.457 0.684-0.734 1.102-0.833 0.423-0.1 0.82-0.004 1.188 0.291 0.366 0.287 0.61 0.689 0.732 1.206 0.121 0.51 0.121 1.063 0.001 1.66-0.122 0.601-0.372 1.131-0.72 1.579l0.006-0.009c-0.349 0.449-0.767 0.731-1.254 0.847-0.361 0.085-0.7-0.010-1.018-0.286s-0.538-0.669-0.659-1.178c-0.122-0.517-0.129-1.080-0.019-1.689zM17.839 11.038c0.113-0.027 0.276 0.047 0.489 0.221 0.218 0.165 0.349 0.34 0.392 0.524s0.079 0.729 0.107 1.634c0.026 0.898 0.031 1.836 0.015 2.812-0.020 2.188-0.111 3.301-0.273 3.34-0.098 0.023-0.223-0.011-0.371-0.103-0.143-0.101-0.226-0.197-0.247-0.289s-0.041-0.282-0.057-0.57c-0.524 0.872-1.045 1.369-1.561 1.491-0.311 0.074-0.626-0.001-0.948-0.225-0.314-0.225-0.508-0.489-0.579-0.794-0.105-0.439-0.111-0.986-0.020-1.644 0.105-0.711 0.329-1.351 0.651-1.929l-0.015 0.028c0.327-0.601 0.742-0.961 1.243-1.079 0.502-0.119 0.923 0.099 1.263 0.654 0.006-1.586-0.077-2.818-0.247-3.698-0.050-0.212 0.002-0.337 0.158-0.374zM17.907 16.528c-0.091-0.382-0.234-0.689-0.431-0.919-0.188-0.232-0.375-0.326-0.559-0.282-0.303 0.072-0.57 0.333-0.799 0.783-0.221 0.428-0.381 0.926-0.454 1.452l-0.003 0.024c-0.070 0.525-0.063 0.964 0.021 1.318 0.025 0.122 0.103 0.221 0.208 0.275l0.002 0.001c0.067 0.035 0.145 0.055 0.229 0.055 0.045 0 0.089-0.006 0.13-0.017l-0.004 0.001c0.276-0.065 0.599-0.351 0.972-0.858 0.379-0.509 0.611-1.057 0.696-1.646l0.002-0.135-0.012-0.052zM24.671 15.892c0.137 0.581-0.009 1.131-0.438 1.652-0.431 0.513-0.985 0.849-1.663 1.010-0.671 0.159-1.266 0.117-1.786-0.127-0.522-0.25-0.819-0.532-0.892-0.843-0.051-0.212-0.012-0.334 0.115-0.364 0.113-0.027 0.375 0.090 0.788 0.352 0.156 0.090 0.352 0.163 0.589 0.219 0.244 0.055 0.486 0.054 0.726-0.004 0.495-0.117 0.902-0.348 1.223-0.693 0.329-0.347 0.457-0.669 0.387-0.966-0.045-0.191-0.23-0.406-0.554-0.643-0.302-0.223-0.645-0.435-1.004-0.619l-0.042-0.020c-0.399-0.215-0.739-0.435-1.061-0.677l0.021 0.015c-0.326-0.244-0.511-0.455-0.553-0.632-0.026-0.112-0.041-0.24-0.041-0.372 0-0.076 0.005-0.151 0.014-0.224l-0.001 0.009c0.024-0.215 0.068-0.378 0.13-0.49 0.203-0.37 0.564-0.751 1.083-1.143 0.526-0.394 0.987-0.638 1.383-0.731 0.056-0.015 0.121-0.024 0.188-0.024 0.14 0 0.27 0.038 0.382 0.105l-0.003-0.002c0.174 0.101 0.278 0.226 0.313 0.374 0.017 0.071-0.044 0.145-0.182 0.223s-0.351 0.188-0.638 0.33c-0.285 0.134-0.528 0.274-0.757 0.433l0.017-0.011c-0.738 0.505-1.074 0.901-1.005 1.191 0.037 0.156 0.553 0.494 1.548 1.013 0.414 0.221 0.77 0.474 1.091 0.767l-0.004-0.004c0.346 0.3 0.555 0.598 0.625 0.895zM27.104 16.426c0.032 0.135 0.126 0.183 0.281 0.147 0.268-0.064 0.575-0.215 0.922-0.454 0.351-0.247 0.548-0.377 0.591-0.386 0.127-0.030 0.207 0.022 0.239 0.156 0.048 0.206-0.108 0.493-0.468 0.862-0.353 0.368-0.703 0.593-1.049 0.674-0.339 0.080-0.644 0.055-0.913-0.075-0.271-0.138-0.43-0.306-0.477-0.505-0.047-0.198-0.064-0.459-0.051-0.783 0.011-0.332 0.035-0.767 0.071-1.307 0.042-0.548 0.070-1 0.082-1.354-0.314 0.156-0.527 0.248-0.64 0.274s-0.239-0.003-0.379-0.090c-0.134-0.095-0.214-0.196-0.239-0.302-0.040-0.17 0.381-0.442 1.262-0.815-0.012-0.618-0.071-1.153-0.178-1.606-0.050-0.212-0.005-0.335 0.137-0.369 0.12-0.028 0.287 0.015 0.5 0.129 0.212 0.106 0.34 0.255 0.385 0.447s0.065 0.542 0.058 1.052c0.394-0.131 0.711-0.225 0.951-0.281 0.425-0.101 0.658-0.058 0.702 0.126 0.025 0.106-0.071 0.222-0.287 0.348-0.209 0.124-0.663 0.348-1.363 0.67-0.016 0.594-0.052 1.28-0.107 2.055-0.057 0.769-0.067 1.231-0.030 1.386zM31.839 10.864c0.318-0.075 0.649 0.018 0.995 0.281 0.343 0.255 0.546 0.513 0.608 0.775 0.060 0.255 0.034 0.538-0.079 0.849 0.11 0.086 0.174 0.167 0.193 0.246 0.047 0.198 0.081 0.549 0.103 1.052 0.030 0.502 0.051 0.829 0.065 0.983 0.021 0.152 0.036 0.276 0.043 0.371 0.006 0.089 0.009 0.177 0.007 0.268 0.014 0.183-0.029 0.287-0.128 0.311-0.127 0.030-0.258-0.055-0.396-0.254-0.131-0.208-0.246-0.488-0.343-0.838-0.44 0.949-0.928 1.487-1.465 1.614-0.325 0.077-0.679 0.015-1.062-0.186-0.378-0.209-0.602-0.463-0.672-0.761-0.1-0.425-0.069-0.986 0.095-1.682 0.173-0.744 0.452-1.4 0.826-1.99l-0.015 0.026c0.379-0.606 0.788-0.96 1.225-1.065zM32.768 12.618c-0.156-0.658-0.364-0.957-0.626-0.895-0.275 0.065-0.55 0.34-0.823 0.823-0.261 0.446-0.474 0.962-0.61 1.508l-0.009 0.041c-0.137 0.556-0.171 0.979-0.103 1.27 0.027 0.119 0.109 0.215 0.217 0.261l0.002 0.001c0.115 0.047 0.24 0.055 0.374 0.023 0.332-0.079 0.654-0.39 0.965-0.935 0.31-0.551 0.47-1.169 0.48-1.852-0.004-0.111 0.041-0.189 0.135-0.234l-0.002-0.010z"></path>
<path fill="#bbf330" style="fill: var(--color5, #bbf330)" d="M30.759 19.973c-0.303 0.075-0.542 0.306-0.641 0.602-1.906 5.649-7.244 9.719-13.535 9.719-3.815 0-7.28-1.496-9.841-3.934-0.164-0.159-0.388-0.257-0.635-0.257-0.075 0-0.147 0.009-0.217 0.026l0.006-0.001c-0.639 0.158-0.88 0.935-0.406 1.392 2.861 2.772 6.767 4.481 11.072 4.481 0.007 0 0.014 0 0.021 0h-0.001c7.078 0 13.081-4.606 15.182-10.986 0.206-0.626-0.368-1.199-1.006-1.041zM1.866 14.15c0.343-0.091 0.603-0.371 0.664-0.719l0.001-0.005c1.211-6.665 7.039-11.72 14.051-11.72 4.559 0 8.617 2.137 11.232 5.465 0.219 0.279 0.578 0.413 0.923 0.328 0.583-0.145 0.847-0.825 0.478-1.301-2.924-3.77-7.495-6.198-12.634-6.198-7.881 0-14.43 5.711-15.742 13.225-0.103 0.593 0.445 1.070 1.028 0.926zM40.615 5.332c-3.777 7.241-5.435 2.465-10.753 5.27 0.532-8.405 6.163-3.291 10.753-5.27z"></path>
</symbol>
</defs>
</svg>
