<svg aria-hidden="true" style="position: absolute; width: 0; height: 0; overflow: hidden;" version="1.1" xmlns="http://www.w3.org/2000/svg" xmlns:xlink="http://www.w3.org/1999/xlink">
<defs>
<symbol id="icon-logo" viewBox="0 0 41 32">
<path fill="#ffe550" style="fill: var(--color1, #ffe550)" d="M14.123 6.486c0.464-0.891 1.381-1.489 2.437-1.489s1.973 0.598 2.43 1.474l0.007 0.015 1.268 2.474c0.397 0.766 1.126 1.314 1.99 1.456l0.016 0.002 2.757 0.443c2.203 0.351 3.083 3.040 1.508 4.615l-1.982 2c-0.615 0.615-0.905 1.489-0.769 2.345l0.437 2.769c0.021 0.127 0.033 0.274 0.033 0.423 0 1.509-1.223 2.732-2.732 2.732-0.455 0-0.883-0.111-1.26-0.307l0.015 0.007-2.474-1.255c-0.362-0.188-0.79-0.298-1.243-0.298s-0.881 0.11-1.258 0.305l0.015-0.007-2.474 1.255c-0.362 0.189-0.791 0.3-1.245 0.3-1.509 0-2.732-1.223-2.732-2.732 0-0.149 0.012-0.296 0.035-0.439l-0.002 0.016 0.431-2.769c0.021-0.128 0.033-0.275 0.033-0.425 0-0.749-0.302-1.427-0.79-1.92l0 0-1.988-1.994c-0.49-0.493-0.793-1.172-0.793-1.923 0-1.356 0.989-2.48 2.285-2.691l0.016-0.002 2.757-0.443c0.883-0.143 1.614-0.691 2.005-1.443l0.007-0.015 1.262-2.474z"></path>
<path fill="#2c2c2c" style="fill: var(--color2, #2c2c2c)" d="M1.12 20.357h-0.025l-0.012 0.905c-0.008 0.448-0.013 0.976-0.013 1.505 0 0.087 0 0.175 0 0.262l-0-0.014c0 0.123-0.006 0.215-0.018 0.295l-0.018 0.209c-0.012 0.123-0.043 0.197-0.086 0.209-0.092 0.018-0.234-0.049-0.431-0.215s-0.308-0.314-0.345-0.443c-0.031-0.123-0.037-1.058-0.018-2.8 0.025-1.742-0.025-2.886-0.135-3.434-0.011-0.035-0.017-0.076-0.017-0.118 0-0.055 0.011-0.108 0.030-0.156l-0.001 0.003c0.037-0.166 0.222-0.326 0.554-0.468 0.338-0.148 0.843-0.308 1.52-0.462 0.677-0.166 1.225-0.252 1.625-0.271 0.406-0.025 0.622 0.031 0.652 0.154 0.025 0.086-0.025 0.16-0.135 0.228l-0.302 0.16c-0.003 0.013-0.251 0.106-0.501 0.197l-0.25 0.080c-0.431 0.126-0.775 0.247-1.11 0.384l0.076-0.028-0.677 0.24-0.548 0.197 0.037 0.092c0.080 0.332 0.123 1.132 0.123 2.394 0.449-0.086 0.923-0.209 1.415-0.369s0.8-0.258 0.923-0.283c0.265-0.062 0.412-0.043 0.443 0.074 0.049 0.215-0.215 0.474-0.8 0.769-0.572 0.295-1.231 0.529-1.957 0.702zM8.068 18.4c-0.055-0.246-0.148-0.462-0.277-0.658-0.104-0.176-0.258-0.312-0.443-0.392l-0.006-0.002c-0.462 0.246-0.794 0.726-1.003 1.434-0.116 0.342-0.183 0.736-0.183 1.145 0 0.257 0.026 0.508 0.077 0.75l-0.004-0.024c0.129 0.542 0.345 0.849 0.646 0.923 0.492-0.222 0.843-0.677 1.058-1.354 0.215-0.683 0.265-1.292 0.135-1.828zM5.292 19.151c0.123-0.615 0.332-1.145 0.646-1.594 0.252-0.401 0.638-0.697 1.094-0.827l0.013-0.003c0.431-0.098 0.825 0 1.194 0.289s0.615 0.689 0.738 1.206c0.123 0.511 0.117 1.065 0 1.662-0.123 0.591-0.369 1.108-0.726 1.569-0.305 0.414-0.741 0.716-1.246 0.846l-0.016 0.003c-0.075 0.018-0.162 0.029-0.251 0.029-0.3 0-0.571-0.119-0.771-0.312l0 0c-0.331-0.305-0.566-0.711-0.656-1.168l-0.002-0.014c-0.123-0.517-0.129-1.077-0.018-1.686zM12.898 17.255c-0.062-0.246-0.154-0.462-0.283-0.652-0.103-0.178-0.258-0.317-0.443-0.398l-0.006-0.002c-0.462 0.252-0.794 0.732-1.003 1.44-0.113 0.338-0.179 0.727-0.179 1.131 0 0.26 0.027 0.513 0.078 0.758l-0.004-0.024c0.123 0.548 0.345 0.855 0.646 0.923 0.486-0.222 0.837-0.671 1.046-1.348 0.222-0.689 0.271-1.292 0.148-1.828zM10.117 18.012c0.123-0.615 0.332-1.138 0.646-1.588 0.251-0.403 0.637-0.701 1.094-0.834l0.013-0.003c0.431-0.098 0.825 0 1.194 0.289s0.615 0.689 0.738 1.206c0.123 0.511 0.123 1.065 0 1.662-0.123 0.591-0.369 1.114-0.72 1.575-0.305 0.414-0.741 0.716-1.246 0.846l-0.016 0.003c-0.075 0.018-0.162 0.029-0.251 0.029-0.303 0-0.577-0.121-0.777-0.318l0 0c-0.33-0.304-0.565-0.707-0.656-1.162l-0.002-0.014c-0.123-0.517-0.123-1.083-0.018-1.692zM17.932 11.015c0.117-0.031 0.277 0.043 0.492 0.222 0.222 0.16 0.351 0.338 0.394 0.523s0.080 0.726 0.105 1.631c0.025 0.905 0.031 1.84 0.012 2.818-0.018 2.185-0.117 3.298-0.277 3.342-0.098 0.018-0.222-0.012-0.369-0.105-0.148-0.098-0.228-0.197-0.252-0.289-0.032-0.167-0.054-0.364-0.061-0.565l-0-0.007c-0.523 0.874-1.046 1.372-1.563 1.495-0.314 0.074-0.634 0-0.954-0.222-0.314-0.228-0.511-0.492-0.578-0.8-0.042-0.257-0.065-0.553-0.065-0.854 0-0.987 0.255-1.914 0.702-2.719l-0.015 0.029c0.326-0.597 0.745-0.96 1.249-1.077 0.505-0.123 0.923 0.098 1.268 0.652 0.006-1.588-0.074-2.818-0.246-3.698-0.049-0.215 0-0.338 0.16-0.375zM17.994 16.511c-0.073-0.355-0.223-0.666-0.434-0.927l0.003 0.004c-0.185-0.228-0.375-0.326-0.56-0.283-0.308 0.074-0.572 0.338-0.8 0.788-0.313 0.61-0.496 1.33-0.496 2.093 0 0.247 0.019 0.49 0.056 0.727l-0.003-0.026c0.031 0.129 0.098 0.222 0.209 0.277 0.111 0.062 0.228 0.068 0.357 0.037 0.277-0.062 0.603-0.351 0.978-0.862 0.355-0.457 0.604-1.015 0.699-1.623l0.003-0.020v-0.135l-0.012-0.049zM24.794 15.865c0.135 0.578-0.012 1.132-0.443 1.649-0.423 0.502-0.998 0.863-1.653 1.012l-0.020 0.004c-0.677 0.16-1.268 0.123-1.791-0.123s-0.825-0.535-0.898-0.843c-0.049-0.215-0.012-0.332 0.117-0.369 0.111-0.025 0.375 0.092 0.794 0.357 0.154 0.086 0.351 0.16 0.591 0.215 0.246 0.062 0.492 0.055 0.726 0 0.488-0.109 0.908-0.355 1.23-0.694l0.001-0.001c0.332-0.351 0.462-0.677 0.394-0.972-0.049-0.185-0.234-0.4-0.554-0.64-0.332-0.234-0.677-0.449-1.058-0.64-0.369-0.197-0.714-0.412-1.046-0.658-0.326-0.246-0.511-0.455-0.554-0.634-0.025-0.109-0.039-0.235-0.039-0.364 0-0.078 0.005-0.155 0.015-0.23l-0.001 0.009c0.025-0.215 0.068-0.382 0.135-0.492 0.203-0.369 0.566-0.751 1.089-1.145 0.392-0.323 0.856-0.576 1.362-0.731l0.028-0.007c0.203-0.043 0.394-0.018 0.566 0.086 0.172 0.098 0.277 0.222 0.314 0.369 0.018 0.074-0.043 0.148-0.185 0.228l-0.64 0.332c-0.283 0.129-0.529 0.271-0.738 0.418-0.745 0.505-1.083 0.905-1.015 1.194 0.037 0.154 0.554 0.492 1.557 1.015 0.415 0.219 0.772 0.471 1.094 0.761l-0.005-0.004c0.345 0.308 0.554 0.603 0.628 0.898zM27.237 16.394c0.031 0.135 0.123 0.185 0.283 0.148 0.271-0.062 0.578-0.215 0.923-0.455 0.357-0.246 0.554-0.375 0.597-0.388 0.129-0.031 0.209 0.025 0.246 0.16 0.043 0.203-0.111 0.492-0.474 0.862-0.357 0.369-0.708 0.591-1.058 0.677-0.338 0.080-0.646 0.055-0.917-0.074-0.271-0.142-0.431-0.308-0.48-0.505-0.043-0.197-0.062-0.462-0.049-0.788 0.012-0.332 0.037-0.763 0.074-1.305 0.043-0.554 0.074-1.003 0.086-1.354-0.314 0.154-0.529 0.246-0.646 0.271-0.111 0.031-0.24 0-0.382-0.086-0.135-0.098-0.215-0.197-0.24-0.308-0.037-0.166 0.388-0.437 1.274-0.812-0.012-0.615-0.074-1.151-0.185-1.606-0.043-0.215 0-0.338 0.142-0.369 0.123-0.031 0.289 0.012 0.505 0.123 0.209 0.111 0.338 0.258 0.388 0.449 0.043 0.191 0.062 0.542 0.055 1.052 0.394-0.129 0.714-0.222 0.954-0.283 0.431-0.098 0.665-0.062 0.708 0.123 0.025 0.111-0.074 0.228-0.289 0.351-0.209 0.123-0.665 0.351-1.372 0.677-0.012 0.591-0.049 1.28-0.111 2.055-0.055 0.769-0.062 1.231-0.031 1.385zM32 10.831c0.32-0.080 0.652 0.012 1.003 0.277 0.345 0.252 0.548 0.511 0.609 0.775 0.062 0.252 0.031 0.535-0.080 0.849 0.111 0.086 0.172 0.166 0.191 0.246 0.049 0.197 0.086 0.548 0.105 1.046 0.034 0.661 0.076 1.223 0.129 1.782l-0.012-0.158c0.012 0.185-0.031 0.289-0.129 0.308-0.129 0.037-0.265-0.049-0.4-0.246-0.129-0.209-0.246-0.492-0.345-0.843-0.443 0.954-0.935 1.489-1.477 1.618-0.32 0.080-0.677 0.018-1.065-0.185-0.375-0.209-0.603-0.462-0.677-0.763-0.098-0.425-0.062-0.985 0.098-1.68 0.166-0.708 0.437-1.36 0.818-1.969 0.382-0.603 0.794-0.96 1.231-1.065zM32.935 12.578c-0.154-0.658-0.369-0.954-0.628-0.892-0.277 0.062-0.554 0.338-0.831 0.825-0.262 0.447-0.476 0.963-0.613 1.51l-0.009 0.041c-0.084 0.259-0.133 0.557-0.133 0.866 0 0.142 0.010 0.281 0.030 0.417l-0.002-0.016c0.031 0.123 0.098 0.209 0.222 0.265 0.111 0.043 0.24 0.055 0.369 0.018 0.338-0.080 0.665-0.388 0.978-0.935 0.308-0.554 0.468-1.169 0.48-1.852 0-0.111 0.043-0.185 0.135-0.234v-0.012z"></path>
<path fill="#bbf330" style="fill: var(--color3, #bbf330)" d="M30.751 19.975c-0.308 0.074-0.542 0.308-0.646 0.603-1.967 5.691-7.28 9.706-13.53 9.706-3.812 0-7.275-1.493-9.836-3.927l0.006 0.006c-0.166-0.16-0.392-0.259-0.641-0.259-0.076 0-0.15 0.009-0.221 0.026l0.006-0.001c-0.64 0.154-0.88 0.929-0.406 1.391 2.872 2.766 6.783 4.47 11.093 4.47 7.039 0 13.017-4.546 15.157-10.862l0.033-0.113c0.203-0.628-0.369-1.2-1.015-1.046zM1.865 14.154c0.345-0.092 0.603-0.382 0.671-0.732 1.266-6.699 7.073-11.698 14.047-11.698 4.538 0 8.582 2.116 11.198 5.416l0.023 0.030c0.222 0.283 0.585 0.412 0.929 0.332 0.585-0.148 0.849-0.825 0.486-1.298-2.955-3.774-7.511-6.176-12.629-6.176-7.846 0-14.373 5.648-15.738 13.099l-0.015 0.098c-0.111 0.591 0.443 1.071 1.028 0.923zM40.615 5.329c-3.778 7.243-5.434 2.462-10.757 5.274 0.542-8.406 6.166-3.292 10.757-5.274z"></path>
</symbol>
<symbol id="icon-favicon" viewBox="0 0 32 32">
<path fill="#fff" style="fill: var(--color1, #fff)" d="M5.333 0h21.333v21.333h-21.333z"></path>
<path fill="#ffe550" style="fill: var(--color4, #ffe550)" d="M14.371 4.304c0.675-1.321 2.56-1.321 3.235 0l0.853 1.673c0.265 0.517 0.76 0.877 1.333 0.968l1.851 0.293c1.465 0.235 2.048 2.033 1 3.084l-1.321 1.323c-0.411 0.412-0.6 0.995-0.511 1.571l0.293 1.848c0.231 1.467-1.296 2.579-2.617 1.907l-1.676-0.853c-0.239-0.124-0.522-0.197-0.823-0.197s-0.583 0.073-0.833 0.202l0.010-0.005-1.675 0.853c-1.321 0.672-2.848-0.44-2.616-1.907l0.291-1.848c0.014-0.086 0.022-0.184 0.022-0.285 0-0.502-0.203-0.957-0.532-1.286l0 0-1.32-1.323c-1.049-1.051-0.467-2.849 1-3.083l1.849-0.293c0.573-0.093 1.068-0.453 1.333-0.969l0.853-1.673z"></path>
<path fill="#bbf330" style="fill: var(--color5, #bbf330)" d="M16 21.333v0c-5.891 0-10.667-4.776-10.667-10.667s4.776-10.667 10.667-10.667v0c5.891 0 10.667 4.776 10.667 10.667s-4.776 10.667-10.667 10.667zM16 20.196c0.047 0.001 0.103 0.001 0.159 0.001 5.264 0 9.531-4.267 9.531-9.531s-4.267-9.531-9.531-9.531c-0.056 0-0.112 0-0.168 0.001l0.008-0c-0.047-0.001-0.103-0.001-0.159-0.001-5.264 0-9.531 4.267-9.531 9.531s4.267 9.531 9.531 9.531c0.056 0 0.112-0 0.168-0.001l-0.008 0z"></path>
</symbol>
<symbol id="icon-arrow" viewBox="0 0 37 32">
<path fill="#fff" style="fill: var(--color1, #fff)" d="M2.667 21.333v-16c0-2.946 2.388-5.333 5.333-5.333h21.333c2.946 0 5.333 2.388 5.333 5.333v16c0 2.946-2.388 5.333-5.333 5.333h-21.333c-2.946 0-5.333-2.388-5.333-5.333z"></path>
<path fill="#2c2c2c" style="fill: var(--color2, #2c2c2c)" d="M11.633 13.937l9.289 8.85c0.149 0.142 0.352 0.23 0.575 0.23s0.426-0.088 0.575-0.23l0.010-0.010c0.147-0.14 0.238-0.337 0.238-0.556s-0.091-0.416-0.238-0.555l-0-0-8.747-8.333 8.747-8.33c0.147-0.14 0.239-0.337 0.239-0.556s-0.092-0.416-0.238-0.556l-0.010-0.010c-0.149-0.142-0.352-0.23-0.575-0.23s-0.426 0.088-0.575 0.23l0-0-9.289 8.85c-0.159 0.152-0.258 0.366-0.258 0.603s0.099 0.451 0.258 0.603l0 0z"></path>
</symbol>
<symbol id="icon-modal-close" viewBox="0 0 30 32">
<path d="M16.219 14.826l4.928-4.923c0.156-0.177 0.252-0.412 0.252-0.668 0-0.559-0.453-1.013-1.013-1.013-0.257 0-0.492 0.096-0.67 0.253l0.001-0.001-4.927 4.874-4.959-4.955c-0.175-0.146-0.402-0.235-0.649-0.235-0.56 0-1.014 0.454-1.014 1.014 0 0.247 0.089 0.474 0.236 0.65l-0.001-0.002 4.948 5.006-4.847 4.782c-0.211 0.187-0.344 0.458-0.344 0.76 0 0.559 0.454 1.013 1.013 1.013 0.303 0 0.574-0.133 0.76-0.343l0.001-0.001 4.836-4.832 4.806 4.801c0.175 0.146 0.402 0.235 0.649 0.235 0.56 0 1.014-0.454 1.014-1.014 0-0.247-0.089-0.474-0.236-0.65l0.001 0.002-4.785-4.751z"></path>
</symbol>
<symbol id="icon-star" viewBox="0 0 202 32">
<path d="M15.421 1.037c0.584-1.383 2.575-1.383 3.159 0l3.449 8.164c0.247 0.583 0.804 0.982 1.443 1.032l8.952 0.707c1.517 0.12 2.132 1.983 0.976 2.958l-6.821 5.752c-0.487 0.411-0.7 1.056-0.551 1.67l2.084 8.6c0.353 1.457-1.257 2.609-2.556 1.828l-7.664-4.609c-0.547-0.329-1.236-0.329-1.783 0l-7.664 4.609c-1.299 0.781-2.909-0.371-2.556-1.828l2.084-8.6c0.149-0.614-0.064-1.259-0.551-1.67l-6.821-5.752c-1.156-0.975-0.541-2.838 0.976-2.958l8.952-0.707c0.639-0.050 1.196-0.449 1.443-1.032l3.449-8.164z"></path>
</symbol>
<symbol id="icon-burger" viewBox="0 0 32 32">
<path d="M2.666 8c0-0.737 0.597-1.334 1.334-1.334v0h24c0.737 0 1.334 0.597 1.334 1.334s-0.597 1.334-1.334 1.334h-24c-0.737 0-1.334-0.597-1.334-1.334v0zM2.666 16.042c0.001-0.736 0.598-1.333 1.334-1.333 0 0 0 0 0 0h24c0.012-0 0.025-0.001 0.039-0.001 0.737 0 1.334 0.597 1.334 1.334s-0.597 1.334-1.334 1.334c-0.014 0-0.027-0-0.041-0.001l0.002 0h-24c-0.737 0-1.334-0.597-1.334-1.334v0zM4 22.752c-0.72 0.022-1.295 0.61-1.295 1.333s0.575 1.311 1.293 1.333l0.002 0h24c0.012 0 0.025 0.001 0.039 0.001 0.737 0 1.334-0.597 1.334-1.334s-0.597-1.334-1.334-1.334c-0.014 0-0.027 0-0.041 0.001l0.002-0h-24z"></path>
</symbol>
<symbol id="icon-rocket" viewBox="0 0 32 32">
<path d="M7.233 13.633l3.534 1.5c0.4-0.8 0.827-1.588 1.283-2.366s0.939-1.522 1.45-2.234l-2.633-0.533-3.634 3.633zM12.367 16.333l4.433 4.434c1.383-0.632 2.553-1.289 3.663-2.027l-0.096 0.060c1.11-0.733 2.010-1.444 2.7-2.133 1.8-1.8 3.122-3.645 3.966-5.534s1.3-4.022 1.367-6.4c-2.378 0.067-4.511 0.523-6.4 1.367s-3.733 2.167-5.533 3.967c-0.69 0.689-1.4 1.589-2.134 2.7-0.678 1.014-1.334 2.183-1.899 3.404l-0.067 0.162zM20 13.133c-0.444-0.444-0.667-0.994-0.667-1.65 0-0.655 0.223-1.205 0.667-1.65s0.994-0.666 1.65-0.666 1.206 0.222 1.65 0.666c0.444 0.445 0.667 0.995 0.667 1.65s-0.223 1.206-0.667 1.65c-0.444 0.445-0.994 0.667-1.65 0.667s-1.206-0.222-1.65-0.667zM19.5 25.9l3.633-3.633-0.533-2.634c-0.711 0.512-1.456 0.995-2.233 1.45-0.778 0.456-1.567 0.884-2.367 1.284l1.5 3.533zM30.367 2.767c0.2 3.022-0.178 5.777-1.134 8.266-0.955 2.49-2.533 4.834-4.733 7.034l-0.067 0.066-0.066 0.067 0.733 3.667c0.067 0.333 0.050 0.655-0.050 0.966-0.1 0.312-0.272 0.59-0.517 0.834l-5.7 5.733-2.833-6.6-5.667-5.667-6.6-2.833 5.734-5.7c0.244-0.244 0.522-0.417 0.833-0.517s0.633-0.116 0.967-0.050l3.666 0.734c0.019-0.020 0.041-0.036 0.066-0.049l0.001-0.001c0.026-0.014 0.048-0.030 0.067-0.050l0-0c2.2-2.2 4.544-3.784 7.033-4.75s5.244-1.35 8.267-1.15zM5.967 21.167c0.777-0.778 1.727-1.173 2.85-1.184 1.122-0.010 2.072 0.373 2.85 1.15 0.777 0.778 1.16 1.728 1.15 2.85-0.011 1.123-0.406 2.073-1.184 2.85-0.577 0.578-1.472 1.056-2.683 1.434s-3.028 0.733-5.45 1.066c0.333-2.422 0.683-4.244 1.050-5.466s0.839-2.123 1.417-2.7zM7.367 22.6c-0.311 0.333-0.59 0.856-0.834 1.567s-0.455 1.622-0.633 2.733c1.111-0.178 2.022-0.389 2.733-0.633 0.711-0.245 1.234-0.523 1.567-0.834 0.422-0.377 0.639-0.85 0.65-1.416 0.001-0.018 0.001-0.040 0.001-0.061 0-0.555-0.223-1.057-0.584-1.423l0 0c-0.366-0.361-0.869-0.584-1.423-0.584-0.021 0-0.043 0-0.064 0.001l0.003-0c-0.565 0.001-1.071 0.252-1.414 0.648l-0.002 0.002z"></path>
</symbol>
<symbol id="icon-touch" viewBox="0 0 32 32">
<path d="M15.5 1.333c2.023 0 3.75 0.706 5.184 2.117 1.433 1.411 2.15 3.128 2.15 5.15 0 1.156-0.25 2.244-0.75 3.267-0.515 1.040-1.229 1.91-2.1 2.588l-0.017 0.012h-1.133v-1.667c0.627-0.495 1.128-1.12 1.47-1.836l0.013-0.031c0.326-0.677 0.517-1.471 0.517-2.31 0-0.008-0-0.016-0-0.024v0.001c0-1.467-0.523-2.711-1.567-3.733s-2.3-1.534-3.767-1.534c-1.466 0-2.722 0.511-3.766 1.534s-1.567 2.266-1.567 3.733c0 0.822 0.172 1.6 0.517 2.333 0.355 0.747 0.856 1.372 1.472 1.859l0.011 0.008v2.4c-1.227-0.632-2.223-1.564-2.915-2.701l-0.018-0.032c-0.67-1.086-1.067-2.403-1.067-3.812 0-0.019 0-0.039 0-0.058l-0 0.003c0-2.022 0.717-3.739 2.15-5.15s3.161-2.117 5.183-2.117zM14.234 29.333c-0.378 0-0.734-0.072-1.067-0.216-0.337-0.145-0.624-0.342-0.867-0.584l-6.866-6.866 1.866-1.934c0.311-0.31 0.661-0.55 1.050-0.716 0.214-0.095 0.464-0.151 0.727-0.151 0.174 0 0.343 0.024 0.503 0.070l-0.013-0.003 2.6 0.6v-10.866c0-0.934 0.322-1.723 0.967-2.367 0.644-0.644 1.433-0.967 2.366-0.967 0.934 0 1.723 0.323 2.367 0.967s0.967 1.433 0.967 2.367v5.733h0.866c0.111 0 0.211 0.022 0.3 0.067s0.19 0.088 0.3 0.133l4.934 2.4c0.533 0.244 0.927 0.639 1.183 1.183 0.255 0.545 0.328 1.106 0.217 1.684l-1.2 7.266c-0.106 0.647-0.446 1.2-0.929 1.58l-0.005 0.004c-0.462 0.383-1.061 0.616-1.714 0.616-0.007 0-0.013-0-0.020-0h-8.532zM13.967 27.333h9.367l1.433-8.3-6.1-3.033h-1.833v-7.333c0-0.4-0.123-0.723-0.367-0.967s-0.567-0.367-0.967-0.367-0.722 0.123-0.966 0.367c-0.245 0.244-0.367 0.567-0.367 0.967v13.3l-5.133-1.1-0.767 0.766 5.7 5.7zM23.334 27.333v0z"></path>
</symbol>
</defs>
</svg>
